<?xml version="1.0" encoding="utf-8"?>
<svg viewBox="0 0 500 500" xmlns="http://www.w3.org/2000/svg">
  <defs/>
  <path d="M 10 0 L 491.217 0 C 496.74 0 501.217 4.477 501.217 10 L 501.217 420 C 501.217 464.183 465.4 500 421.217 500 L 80 500 C 35.817 500 0 464.183 0 420 L 0 10 C 0 4.477 4.477 0 10 0 Z M 67 386.5 C 67 412.181 87.819 433 113.5 433 L 387.717 433 C 413.398 433 434.217 412.181 434.217 386.5 L 434.217 169.948 L 67 169.948 L 67 386.5 Z" style="">
    <title>Kalender</title>
  </path>
  <path d="M 149.493 179.05 L 241.13 179.05 C 267.524 179.05 288.728 182.683 304.742 189.948 C 320.757 197.214 333.583 210.633 343.221 230.206 C 352.859 249.779 357.678 274.394 357.678 304.05 C 357.678 383.825 319.719 423.712 243.799 423.712 L 149.493 423.712 L 149.493 179.05 Z M 199.76 216.861 L 199.76 385.9 L 237.127 385.9 C 262.335 385.9 280.128 380.265 290.507 368.996 C 300.887 357.727 306.077 335.188 306.077 301.381 C 306.077 276.47 302.815 257.786 296.29 245.331 C 289.766 232.876 281.685 225.017 272.046 221.754 C 262.408 218.492 245.727 216.861 222.002 216.861 L 199.76 216.861 Z" style="">
    <title>D</title>
  </path>
  <path d="M 145.271 423.712 L 86.997 179.05 L 138.153 179.05 L 175.52 348.534 L 220.449 179.05 L 280.947 179.05 L 324.096 351.203 L 361.908 179.05 L 412.175 179.05 L 352.566 423.712 L 298.296 423.712 L 249.808 239.548 L 200.431 423.712 L 145.271 423.712 Z" style="visibility: hidden;">
    <title>W</title>
  </path>
  <path d="M 129.479 423.712 L 129.479 179.05 L 205.102 179.05 L 250.031 347.644 L 294.07 179.05 L 369.693 179.05 L 369.693 423.712 L 322.984 423.712 L 322.984 229.761 L 274.497 423.712 L 224.675 423.712 L 176.187 229.761 L 176.187 423.712 L 129.479 423.712 Z" style="visibility: hidden;">
    <title>M</title>
  </path>
  <path d="M 224.453 423.712 L 224.453 319.619 L 135.485 179.05 L 192.869 179.05 L 251.143 276.47 L 307.193 179.05 L 363.688 179.05 L 274.72 320.064 L 274.72 423.712 L 224.453 423.712 Z" style="visibility: hidden;">
    <title>Y</title>
  </path>
</svg>