<?xml version="1.0" encoding="utf-8"?>
<svg viewBox="0 0 500 500" xmlns="http://www.w3.org/2000/svg">
  <defs/>
  <path d="M 10.414 0 L 491.631 0 C 497.154 0 501.631 4.477 501.631 10 L 501.631 420 C 501.631 464.183 465.814 500 421.631 500 L 80.414 500 C 36.231 500 0.414 464.183 0.414 420 L 0.414 10 C 0.414 4.477 4.891 0 10.414 0 Z M 67.414 386.5 C 67.414 412.181 88.233 433 113.914 433 L 388.131 433 C 413.812 433 434.631 412.181 434.631 386.5 L 434.631 169.948 L 67.414 169.948 Z" style="">
    <title>Kalender</title>
  </path>
  <path d="M 149.907 179.05 L 241.544 179.05 C 267.938 179.05 289.142 182.683 305.156 189.948 C 321.171 197.214 333.997 210.633 343.635 230.206 C 353.273 249.779 358.092 274.394 358.092 304.05 C 358.092 383.825 320.133 423.712 244.213 423.712 L 149.907 423.712 L 149.907 179.05 Z M 200.174 216.861 L 200.174 385.9 L 237.541 385.9 C 262.749 385.9 280.542 380.265 290.921 368.996 C 301.301 357.727 306.491 335.188 306.491 301.381 C 306.491 276.47 303.229 257.786 296.704 245.331 C 290.18 232.876 282.099 225.017 272.46 221.754 C 262.822 218.492 246.141 216.861 222.416 216.861 L 200.174 216.861 Z" style="visibility: hidden;">
    <title>D</title>
  </path>
  <path d="M 145.685 423.712 L 87.411 179.05 L 138.567 179.05 L 175.934 348.534 L 220.863 179.05 L 281.361 179.05 L 324.51 351.203 L 362.322 179.05 L 412.589 179.05 L 352.98 423.712 L 298.71 423.712 L 250.222 239.548 L 200.845 423.712 L 145.685 423.712 Z" style="visibility: hidden;">
    <title>W</title>
  </path>
  <path d="M 129.893 423.712 L 129.893 179.05 L 205.516 179.05 L 250.445 347.644 L 294.484 179.05 L 370.107 179.05 L 370.107 423.712 L 323.398 423.712 L 323.398 229.761 L 274.911 423.712 L 225.089 423.712 L 176.601 229.761 L 176.601 423.712 L 129.893 423.712 Z" style="">
    <title>M</title>
  </path>
  <path d="M 224.867 423.712 L 224.867 319.619 L 135.899 179.05 L 193.283 179.05 L 251.557 276.47 L 307.607 179.05 L 364.102 179.05 L 275.134 320.064 L 275.134 423.712 L 224.867 423.712 Z" style="visibility: hidden;">
    <title>Y</title>
  </path>
</svg>