<?xml version="1.0" encoding="utf-8"?>
<svg viewBox="0 0 500 500" xmlns="http://www.w3.org/2000/svg" xmlns:bx="https://boxy-svg.com">
  <defs/>
  <path d="M 69.411 349.551 C 57.695 361.267 57.695 380.261 69.411 391.977 L 168.406 490.972 C 180.122 502.688 199.116 502.688 210.832 490.972 L 430.036 271.769 C 432.561 269.243 434.543 266.379 435.979 263.322 C 441.885 252.012 440.089 237.726 430.589 228.226 L 211.391 9.028 C 199.676 -2.688 180.68 -2.688 168.965 9.028 L 69.97 108.023 C 58.253 119.739 58.254 138.734 69.97 150.449 L 169.241 249.72 L 69.411 349.551 Z" style="transform-origin: 250px 250px; visibility: hidden;"/>
  <path d="M 250 250 m -250 0 a 250 250 0 1 0 500 0 a 250 250 0 1 0 -500 0 Z M 250 250 m -182 0 a 182 182 0 0 1 364 0 a 182 182 0 0 1 -364 0 Z" style="" bx:shape="ring 250 250 182 182 250 250 1@47ae08bd"/>
  <path style="" d="M 250 90 C 263.807 90 275 101.193 275 115 L 275 226.43 C 280.802 232.582 284.359 240.876 284.359 250 C 284.359 268.976 268.976 284.359 250 284.359 C 249.937 284.359 249.875 284.359 249.812 284.359 L 190.258 339.894 C 180.16 349.31 164.34 348.758 154.924 338.66 C 145.507 328.562 146.06 312.742 156.158 303.326 L 215.711 247.792 C 216.234 239.542 219.669 232.082 225 226.43 L 225 115 C 225 101.193 236.193 90 250 90 Z"/>
</svg>