<?xml version="1.0" encoding="utf-8"?>
<svg viewBox="0 0 500 500" xmlns="http://www.w3.org/2000/svg">
  <defs/>
  <path d="M 94.436 23.726 L 250 179.289 L 405.564 23.726 C 417.28 12.01 436.274 12.01 447.99 23.726 L 476.274 52.01 C 487.99 63.726 487.99 82.72 476.274 94.437 L 320.711 250 L 476.274 405.564 C 487.99 417.28 487.99 436.274 476.274 447.99 L 447.99 476.274 C 436.274 487.99 417.28 487.99 405.564 476.274 L 250 320.711 L 94.436 476.274 C 82.72 487.99 63.726 487.99 52.01 476.274 L 23.726 447.99 C 12.01 436.274 12.01 417.28 23.726 405.564 L 179.289 250 L 23.726 94.437 C 12.01 82.72 12.01 63.726 23.726 52.01 L 52.01 23.726 C 63.726 12.01 82.72 12.01 94.436 23.726 Z" style=""/>
</svg>