<?xml version="1.0" encoding="utf-8"?>
<svg viewBox="0 0 500 500" xmlns="http://www.w3.org/2000/svg">
  <defs/>
  <g id="layer2" style="display: inline;" transform="matrix(0.405537, 0, 0, 0.405537, -7.867174, 84.297844)">
    <path transform="translate(405.08835,129.27489)" style="stroke-miterlimit: 4; stroke-dasharray: none; stroke-width: 2px;" d="M 500.83939,-85.05666 L 498.37064,-83.71291 L 497.33939,-83.65041 L 496.55814,-83.36916 L 496.33939,-83.05666 L 496.55814,-82.40041 L 496.55814,-80.49416 L 495.71439,-78.90041 L 494.87064,-78.21291 L 494.18314,-78.02541 L 493.27689,-76.96291 L 492.93314,-75.77541 L 493.12064,-72.02541 L 492.71439,-69.74416 L 493.55814,-66.43166 L 492.43314,-65.05666 L 494.80814,-60.24416 L 495.24564,-57.11916 L 494.71439,-54.86916 L 493.80814,-53.80666 L 493.30814,-50.58791 L 492.43314,-50.55666 L 492.12064,-49.77541 L 492.24564,-45.86916 L 493.65189,-43.99416 L 492.02689,-42.49416 L 491.62064,-40.93166 L 490.52689,-38.24416 L 489.46439,-35.74416 L 489.83939,-34.15041 L 489.24564,-32.71291 L 489.71439,-30.05666 L 491.46439,-29.24416 L 493.37064,-28.80666 L 493.99564,-28.27541 L 494.87064,-27.02541 L 495.08939,-25.99416 L 494.80814,-24.65041 L 491.77689,-23.05666 L 490.33939,-23.15041 L 489.68314,-23.21291 L 486.80814,-23.61916 L 485.33939,-24.86916 L 483.27689,-25.52541 L 479.62064,-26.33791 L 478.05814,-26.33791 L 477.83939,-27.74416 L 477.02689,-28.11916 L 475.58939,-28.18166 L 473.55814,-27.43166 L 472.62064,-27.49416 L 471.08939,-28.83791 L 469.74564,-28.36916 L 468.02689,-29.05666 L 465.77689,-26.86916 L 465.30814,-26.08791 L 466.12064,-24.80666 L 466.12064,-23.86916 L 464.74564,-21.52541 L 464.49564,-20.27541 L 465.49564,-17.18166 L 463.77689,-16.36916 L 462.30814,-14.83791 L 461.37064,-12.90041 L 459.49564,-11.55666 L 457.05814,-10.77541 L 455.18314,-9.9629098 L 453.96439,-8.8691598 L 452.15189,-5.5879098 L 452.33939,-4.1191598 L 451.21439,-2.1816598 L 450.58939,0.6620902 L 450.08939,2.9745902 L 450.87064,3.5370902 L 451.21439,4.6308402 L 450.90189,5.7245902 L 451.05814,7.9433402 L 450.62064,10.19334 L 450.58939,11.50584 C 450.58939,11.50584 450.57916,11.53709 451.05814,13.53709 L 449.12064,17.16209 L 449.18314,18.06834 L 448.30814,18.97459 L 446.87064,18.75584 L 445.62064,18.88084 L 442.08939,19.25584 L 440.71439,15.16209 L 440.37064,14.16209 L 439.49564,12.97459 L 438.65189,12.94334 L 437.15189,13.94334 L 436.40189,14.03709 L 435.87064,14.13084 L 434.43314,9.3183402 L 434.40189,9.1308402 L 432.77689,8.1933402 L 430.74564,10.31834 L 426.43314,12.84959 L 425.55814,13.97459 L 424.71439,13.53709 L 424.52689,13.41209 L 422.96439,11.88084 L 422.46439,11.38084 L 419.93314,11.44334 L 419.33939,10.84959 L 418.90189,10.38084 L 417.96439,10.19334 L 416.37064,10.81834 L 416.33939,10.84959 L 414.99564,9.2558402 L 414.96439,7.9120902 L 414.65189,7.5683402 L 414.27689,7.1308402 L 413.12064,6.7558402 L 412.96439,6.7245902 L 410.83939,3.7245902 L 407.90189,4.1933402 L 407.33939,4.2870902 L 406.90189,4.6308402 L 406.55814,5.3808402 L 408.37064,8.0683402 L 408.24564,9.5058402 L 406.02689,14.63084 L 404.37064,16.28709 L 402.83939,17.47459 L 402.02689,16.94334 L 401.90189,16.88084 L 397.74564,16.66209 L 396.90189,17.69334 L 396.93314,18.56834 L 398.37064,21.28709 L 397.52689,22.53709 L 395.77689,23.66209 L 395.05814,22.00584 L 394.37064,21.81834 L 392.80814,22.75584 L 390.49564,26.88084 L 388.37064,29.28709 L 386.83939,29.47459 L 385.99564,26.19334 L 385.83939,25.63084 L 383.55814,25.13084 L 382.96439,24.63084 L 380.99564,22.03709 L 379.74564,21.13084 L 378.30814,19.38084 L 376.37064,19.34959 L 374.62064,20.22459 L 373.80814,20.09959 L 371.83939,18.50584 L 370.15189,18.22459 L 366.65189,16.88084 L 364.30814,16.56834 L 363.55814,16.94334 L 361.87064,16.88084 L 359.93314,16.16209 L 359.83939,16.13084 L 357.99564,16.28709 L 355.80814,15.84959 L 353.02689,17.53709 L 350.62064,17.03709 L 350.58939,15.16209 L 345.96439,15.25584 L 345.68314,13.09959 L 344.62064,13.72459 L 343.68314,13.56834 L 341.83939,11.34959 L 342.90189,9.1308402 L 342.74564,8.4433402 L 342.05814,7.7558402 L 340.87064,8.2558402 L 339.83939,8.0370902 L 339.62064,7.8183402 L 337.62064,5.8808402 L 337.40189,5.1933402 L 339.65189,2.2558402 L 341.08939,1.7245902 L 343.33939,2.1308402 L 344.49564,0.9745902 L 344.68314,-0.9004098 L 343.99564,-2.8066598 L 343.49564,-3.3691598 L 341.02689,-3.7129098 L 339.62064,-4.9629098 L 339.18314,-6.0566598 L 336.90189,-8.7754098 L 336.49564,-10.40041 L 336.46439,-10.58791 L 335.33939,-11.24416 L 334.52689,-11.36916 L 332.83939,-11.65041 L 332.08939,-11.40041 L 332.05814,-11.40041 L 328.46439,-12.33791 L 328.33939,-12.36916 L 327.96439,-13.33791 L 327.74564,-13.86916 L 325.30814,-14.55666 L 324.71439,-15.77541 L 317.99564,-23.11916 L 314.33939,-25.49416 L 312.62064,-26.15041 L 310.15189,-26.27541 L 309.21439,-24.46291 L 306.87064,-22.08791 L 306.90189,-20.24416 L 306.43314,-18.21291 L 306.71439,-16.74416 L 304.58939,-15.36916 L 303.05814,-12.65041 L 305.49564,-11.43166 L 305.58939,-10.18166 L 306.46439,-8.7754098 L 306.43314,-8.6816598 L 305.74564,-6.6191598 L 305.55814,-4.5879098 L 306.30814,-2.0254098 L 306.43314,0.037090202 L 305.93314,2.9120902 L 307.24564,4.3808402 L 307.71439,6.4745902 L 306.93314,7.6308402 L 306.77689,11.03709 L 305.93314,12.72459 L 304.33939,13.78709 L 303.71439,14.63084 L 303.62064,14.72459 L 303.65189,16.16209 L 304.15189,17.00584 L 304.43314,17.44334 L 304.27689,20.38084 L 302.90189,21.69334 L 300.49564,22.66209 L 298.15189,26.06834 L 297.24564,25.75584 L 296.65189,23.91209 L 295.99564,23.53709 L 295.52689,23.88084 L 295.27689,24.78709 L 295.49564,26.69334 L 294.43314,28.25584 L 294.96439,30.28709 L 294.80814,31.44334 L 292.37064,33.09959 L 292.30814,33.50584 L 292.02689,34.91209 L 291.12064,35.81834 L 289.46439,35.81834 L 284.02689,31.97459 L 281.83939,31.31834 L 281.12064,30.53709 L 280.08939,27.84959 L 279.30814,26.72459 L 275.77689,26.09959 L 274.08939,25.19334 L 272.52689,23.53709 L 271.83939,22.81834 L 270.21439,22.31834 L 269.02689,22.59959 L 268.46439,23.66209 L 267.83939,24.75584 L 266.87064,24.91209 L 264.37064,23.22459 L 261.65189,20.25584 L 261.02689,19.59959 L 259.87064,18.31834 L 257.83939,16.75584 L 255.43314,17.09959 L 255.27689,19.19334 L 255.21439,19.88084 L 253.49564,21.13084 L 252.30814,21.38084 L 251.12064,21.63084 L 250.80814,21.78709 L 249.12064,22.69334 L 249.02689,22.75584 L 248.55814,23.00584 L 248.37064,23.09959 L 246.62064,24.09959 L 245.08939,25.00584 L 244.93314,25.78709 L 244.80814,26.47459 L 244.80814,26.56834 L 244.90189,26.88084 L 245.24564,28.13084 L 246.37064,29.44334 L 246.58939,30.22459 L 246.83939,30.97459 L 246.15189,32.81834 L 246.30814,33.13084 L 247.37064,35.31834 L 247.43314,35.41209 L 247.52689,36.69334 L 246.99564,39.41209 L 246.77689,41.38084 L 246.30814,42.19334 L 243.71439,47.97459 L 243.58939,48.41209 L 243.33939,49.19334 L 243.12064,49.81834 L 242.96439,50.28709 L 243.21439,50.72459 L 244.05814,52.22459 L 244.52689,53.25584 L 244.58939,53.50584 L 245.08939,54.97459 L 245.24564,55.81834 L 242.74564,61.34959 L 242.24564,62.47459 L 241.08939,69.09959 L 238.27689,71.63084 L 232.58939,75.81834 L 231.05814,78.44334 L 229.99564,79.56834 L 229.30814,80.31834 L 227.65189,82.03709 L 227.12064,82.41209 L 227.02689,82.47459 L 226.77689,82.66209 L 224.33939,84.44334 L 223.74564,84.88084 L 221.77689,86.00584 L 215.96439,89.34959 L 214.71439,89.72459 L 205.65189,88.97459 L 205.05814,88.94334 L 203.05814,89.47459 L 201.55814,89.84959 L 201.21439,89.94334 L 198.87064,91.31834 L 196.40189,92.78709 L 194.27689,93.09959 L 188.49564,92.88084 L 187.24564,93.59959 L 186.87064,93.81834 L 185.05814,94.91209 L 184.27689,95.34959 L 183.74564,95.66209 L 183.68314,95.72459 L 180.55814,97.03709 L 179.65189,97.41209 L 179.37064,97.69334 L 178.87064,98.13084 L 177.62064,98.06834 L 176.58939,99.03709 L 175.99564,99.66209 L 175.12064,102.28709 L 173.18314,104.69334 L 173.02689,104.88084 L 168.30814,108.91209 L 167.68314,109.47459 L 165.71439,110.47459 L 162.71439,110.19334 L 160.33939,110.66209 L 159.80814,110.78709 L 157.37064,111.25584 L 154.83939,111.19334 L 152.96439,112.59959 L 152.77689,113.31834 L 152.55814,114.06834 L 152.40189,114.63084 L 152.12064,115.69334 L 151.40189,116.41209 L 150.15189,117.94334 L 149.99564,119.31834 L 149.46439,120.28709 L 148.08939,120.44334 L 147.33939,122.19334 L 146.87064,123.22459 L 146.68314,123.63084 L 145.37064,123.91209 L 144.96439,124.03709 L 143.52689,124.38084 L 143.30814,124.41209 L 141.99564,125.69334 L 141.96439,125.75584 L 141.30814,127.63084 L 140.05814,131.16209 L 139.40189,131.06834 L 137.87064,129.56834 L 136.83939,129.50584 L 136.18314,129.47459 L 135.93314,129.78709 L 135.43314,130.41209 L 135.46439,132.41209 L 134.18314,133.84959 L 133.77689,134.84959 L 135.02689,140.50584 L 135.90189,142.94334 L 136.77689,143.84959 L 136.80814,143.88084 L 137.18314,144.25584 L 138.71439,145.66209 L 138.93314,145.84959 L 144.80814,150.53709 L 145.83939,151.94334 L 146.49564,152.78709 L 149.40189,154.97459 L 150.77689,156.00584 L 151.30814,156.28709 L 152.02689,158.22459 L 152.27689,160.56834 L 152.62064,161.94334 L 153.58939,165.91209 L 154.71439,168.63084 L 155.77689,169.69334 L 160.08939,170.25584 L 161.71439,171.00584 L 162.33939,174.22459 L 163.33939,174.34959 L 164.15189,173.59959 L 164.40189,173.38084 L 164.93314,173.28709 L 165.21439,173.84959 L 164.71439,175.53709 L 164.80814,176.75584 L 165.15189,177.69334 L 166.49564,179.41209 L 167.65189,180.91209 L 169.33939,183.88084 L 170.52689,186.38084 L 173.87064,193.28709 L 175.55814,195.72459 L 175.93314,196.16209 L 176.46439,196.78709 L 176.15189,197.44334 L 176.08939,197.59959 L 174.83939,200.28709 L 174.58939,200.59959 L 174.33939,200.94334 L 173.77689,201.66209 L 172.58939,203.16209 L 168.65189,210.91209 L 165.74564,214.19334 L 165.18314,215.28709 L 165.68314,216.78709 L 165.68314,216.88084 L 165.52689,219.31834 L 164.74564,220.53709 L 159.96439,224.28709 L 159.74564,225.81834 L 160.96439,226.94334 L 163.40189,230.03709 L 163.71439,230.03709 L 171.58939,231.31834 L 173.37064,230.22459 L 177.21439,228.19334 L 178.52689,227.94334 L 181.12064,229.44334 L 181.65189,230.03709 L 186.68314,235.50584 L 187.99564,240.47459 L 190.08939,245.72459 L 190.52689,248.31834 L 189.12064,250.88084 L 186.90189,252.66209 L 186.21439,254.28709 L 186.21439,258.00584 L 185.83939,260.19334 L 184.83939,261.22459 L 181.90189,261.13084 L 181.27689,262.50584 L 181.55814,264.59959 L 183.77689,265.31834 L 183.96439,265.81834 L 180.99564,270.06834 L 180.40189,272.31834 L 181.65189,275.53709 L 182.37064,279.41209 L 182.08939,281.88084 L 181.21439,282.94334 L 179.05814,283.69334 L 178.15189,286.00584 L 176.15189,287.88084 L 175.33939,287.75584 L 171.65189,284.63084 L 170.93314,286.03709 L 169.24564,285.97459 L 164.65189,282.88084 L 161.15189,281.13084 L 157.37064,278.63084 L 155.68314,275.09959 L 152.68314,273.66209 L 151.33939,272.59959 L 150.46439,269.91209 L 150.74564,269.91209 L 149.96439,269.06834 L 146.83939,269.50584 L 143.71439,268.84959 L 139.52689,264.06834 L 139.15189,262.50584 L 139.30814,261.13084 L 142.99564,255.25584 L 145.83939,254.47459 L 145.58939,253.69334 L 141.80814,249.94334 L 140.49564,249.41209 L 138.68314,248.69334 L 138.52689,248.47459 L 137.27689,245.66209 L 137.08939,243.75584 L 139.02689,241.25584 L 138.93314,239.44334 L 138.90189,239.34959 L 137.65189,240.34959 L 135.27689,240.84959 L 134.77689,239.91209 L 134.30814,239.06834 L 133.15189,238.34959 L 129.18314,238.31834 L 127.08939,237.53709 L 127.08939,237.34959 L 124.37064,236.63084 L 121.27689,236.38084 L 118.24564,239.28709 L 118.21439,239.31834 L 116.93314,239.22459 L 114.77689,238.09959 L 113.02689,238.34959 L 110.27689,239.88084 L 108.77689,241.78709 L 106.65189,247.59959 L 106.21439,248.09959 L 105.87064,248.47459 L 102.52689,247.84959 L 99.683143,247.91209 L 95.839393,250.50584 L 95.839393,250.72459 L 94.089393,250.69334 L 93.120643,249.72459 L 92.089393,247.44334 L 89.995643,245.22459 L 89.714393,245.19334 L 87.495643,241.66209 L 86.776893,240.47459 L 84.933143,237.56834 L 84.558143,233.97459 L 82.714393,233.13084 L 80.651893,233.31834 L 76.464393,235.00584 L 75.933143,235.22459 L 73.808143,235.91209 L 72.464393,235.59959 L 70.901893,234.25584 L 66.651893,233.13084 L 60.214393,234.31834 L 55.964393,237.56834 L 54.620643,237.22459 L 54.464393,237.03709 L 53.651893,236.19334 L 53.026893,234.53709 L 53.276893,231.28709 L 56.214393,224.16209 L 55.433143,222.38084 L 54.401893,222.38084 L 52.526893,223.56834 L 49.151893,228.09959 L 46.714393,229.88084 L 43.808143,230.44334 L 42.776893,231.34959 L 42.245643,231.81834 L 41.683143,232.28709 L 40.120643,232.56834 L 41.026893,235.91209 L 42.183143,237.91209 L 44.558143,243.19334 L 44.558143,243.22459 L 44.745643,243.78709 L 45.495643,245.94334 L 45.745643,246.97459 L 46.683143,251.03709 L 46.526893,251.06834 L 45.089393,251.50584 L 44.714393,251.59959 L 42.839393,252.13084 L 40.151893,252.88084 L 39.401893,253.09959 L 35.370643,254.81834 L 32.339393,253.75584 L 28.183143,254.25584 L 23.745643,252.22459 L 21.620643,252.72459 L 20.433143,252.28709 L 17.120643,253.41209 L 15.120643,251.13084 L 13.526893,251.00584 L 13.339393,250.97459 L 11.245643,251.69334 L 9.8081429,253.03709 L 8.6206429,252.63084 L 7.0893929,252.78709 L 5.8081429,252.88084 L -0.37935714,252.72459 L -3.2231071,253.78709 L -4.4418571,254.22459 L -7.0043571,255.69334 L -10.160607,255.75584 L -10.691857,256.31834 L -11.004357,258.75584 L -11.535607,260.22459 L -12.473107,260.50584 L -17.191857,259.91209 L -21.160607,258.72459 L -21.473107,258.72459 L -22.785607,258.69334 L -27.191857,259.31834 L -35.066857,259.31834 L -37.316857,259.78709 L -40.473107,259.94334 L -41.941857,260.09959 L -44.566857,258.19334 L -45.348107,259.09959 L -46.379357,259.06834 L -48.379357,259.06834 L -49.754357,260.53709 L -49.941857,260.91209 L -52.816857,267.03709 L -53.441857,270.22459 L -52.754357,273.75584 L -55.660607,276.00584 L -58.410607,276.94334 L -61.723107,277.25584 L -64.785607,276.94334 L -66.285607,278.28709 L -68.973107,278.38084 L -68.941857,278.16209 L -74.160607,277.34959 L -76.160607,276.28709 L -76.816857,275.91209 L -79.973107,277.88084 L -82.754357,282.94334 L -84.941857,284.22459 L -85.691857,285.97459 L -85.473107,287.28709 L -84.191857,288.13084 L -81.316857,287.41209 L -80.941857,290.50584 L -78.941857,293.56834 L -81.223107,293.00584 L -83.910607,291.94334 L -84.910607,292.47459 L -87.004357,292.19334 L -88.598107,293.25584 L -89.723107,292.13084 L -92.691857,291.84959 L -94.129357,292.50584 L -95.191857,294.94334 L -96.879357,296.25584 L -99.973107,296.63084 L -101.00436,298.13084 L -100.97311,300.38084 L -101.72311,302.81834 L -103.94186,303.94334 L -104.50436,304.22459 L -104.97311,304.47459 L -105.66061,304.44334 L -107.03561,304.41209 L -111.03561,304.50584 L -111.31686,303.28709 L -109.91061,300.25584 L -107.66061,297.47459 L -107.62936,297.44334 L -108.06686,296.84959 L -108.87936,296.06834 L -111.62936,296.13084 L -114.94186,296.00584 L -115.97311,297.25584 L -120.34811,298.25584 L -125.81686,300.25584 L -127.94186,301.44334 L -128.03561,303.81834 L -129.25436,304.88084 L -131.91061,305.09959 L -136.94186,304.81834 L -141.16061,304.94334 L -143.31686,305.22459 L -146.53561,304.38084 L -148.34811,305.09959 L -149.56686,305.09959 L -150.97311,304.28709 L -152.03561,302.84959 L -151.47311,301.09959 L -151.22311,301.09959 L -150.53561,299.75584 L -150.84811,299.75584 L -150.31686,297.50584 L -150.59811,296.28709 L -151.41061,295.44334 L -156.25436,290.34959 L -157.81686,287.63084 L -157.94186,287.41209 L -158.31686,285.16209 L -158.47311,285.03709 L -159.56686,284.16209 L -163.84811,283.78709 L -166.25436,284.41209 L -167.97311,284.25584 L -169.00436,282.63084 L -168.00436,279.72459 L -167.34811,279.00584 L -161.87936,277.56834 L -161.09811,276.56834 L -161.50436,275.50584 L -162.16061,274.69334 L -163.41061,273.19334 L -165.78561,272.25584 L -169.75436,272.06834 L -173.16061,273.66209 L -173.16061,273.44334 L -176.22311,273.84959 L -176.22311,274.06834 L -180.06686,276.34959 L -182.75436,276.56834 L -184.28561,275.97459 L -184.81686,275.59959 L -186.53561,273.00584 L -187.66061,272.22459 L -190.66061,272.03709 L -195.66061,269.56834 L -196.84811,268.13084 L -197.72311,267.09959 L -198.09811,266.66209 L -198.44186,266.22459 L -202.97311,265.75584 L -206.22311,265.88084 L -207.62936,265.50584 L -210.69186,264.69334 L -211.72311,265.03709 L -212.16061,265.25584 L -213.78561,266.13084 L -214.69186,268.44334 L -216.00436,271.66209 L -217.03561,272.22459 L -219.06686,271.97459 L -223.59811,272.31834 L -226.09811,272.06834 L -229.37936,270.66209 L -232.72311,268.41209 L -234.50436,267.22459 L -234.94186,266.56834 L -233.28561,264.28709 L -233.25436,263.13084 L -231.69186,260.91209 L -232.19186,259.94334 L -236.91061,259.97459 L -238.53561,260.53709 L -238.97311,261.56834 L -238.81686,263.69334 L -237.25436,265.25584 L -237.03561,265.25584 L -236.19186,266.91209 L -237.34811,272.44334 L -238.37936,275.81834 L -239.31686,278.91209 L -239.34811,279.94334 L -238.81686,281.22459 L -237.62936,283.91209 L -234.47311,285.72459 L -233.75436,287.34959 L -234.03561,292.72459 L -232.22311,295.19334 L -232.16061,296.06834 L -233.41061,297.50584 L -234.81686,298.22459 L -238.50436,302.34959 L -239.41061,303.91209 L -238.91061,306.75584 L -239.28561,307.94334 L -241.22311,309.00584 L -244.94186,310.56834 L -246.50436,312.56834 L -247.37936,315.22459 L -250.34811,317.72459 L -251.62936,319.97459 L -253.31686,324.88084 L -254.75436,326.22459 L -255.25436,326.34959 L -257.59811,326.91209 L -261.06686,328.81834 L -262.87936,329.28709 L -266.69186,331.38084 L -271.37936,334.34959 L -273.97311,333.97459 L -276.28561,334.88084 L -279.84811,335.47459 L -279.91061,335.50584 L -280.91061,333.72459 L -280.97311,332.28709 L -279.69186,330.50584 L -276.09811,328.44334 L -274.22311,326.53709 L -274.28561,325.06834 L -276.03561,323.19334 L -276.09811,321.66209 L -274.59811,317.44334 L -273.03561,315.38084 L -271.06686,311.50584 L -270.94186,309.63084 L -271.87936,308.34959 L -272.19186,308.13084 L -272.84811,307.72459 L -274.91061,308.06834 L -276.69186,308.13084 L -278.56686,306.44334 L -279.53561,306.94334 L -281.69186,307.31834 L -281.53561,310.78709 L -282.44186,312.28709 L -285.47311,312.66209 L -288.41061,310.75584 L -289.19186,310.97459 L -289.22311,310.97459 L -290.75436,313.38084 L -291.78561,314.16209 L -292.87936,314.06834 L -293.69186,308.94334 L -294.41061,307.06834 L -297.47311,301.75584 L -295.78561,301.03709 L -293.22311,298.66209 L -292.31686,297.19334 L -292.81686,295.47459 L -293.19186,292.22459 L -293.62936,291.84959 L -296.81686,292.00584 L -297.66061,290.97459 L -299.84811,288.28709 L -300.06686,288.28709 L -300.72311,284.59959 L -300.78561,284.38084 L -303.44186,283.69334 L -308.00436,283.97459 L -308.50436,283.41209 L -309.66061,282.16209 L -310.00436,280.03709 L -312.22311,276.75584 L -312.25436,275.31834 L -312.28561,273.38084 L -312.37936,270.06834 L -313.28561,269.25584 L -314.19186,270.22459 L -315.31686,272.31834 L -316.41061,271.66209 L -318.03561,271.47459 L -319.94186,272.88084 L -320.69186,273.16209 L -322.94186,270.78709 L -324.25436,270.00584 L -326.25436,270.28709 L -329.25436,273.00584 L -329.56686,272.69334 L -332.31686,269.63084 L -337.56686,269.50584 L -338.19186,268.31834 L -336.84811,266.56834 L -336.75436,263.81834 L -337.59811,261.00584 L -339.91061,259.34959 L -342.78561,258.78709 L -345.78561,259.75584 L -346.12936,260.34959 L -347.03561,261.72459 L -349.75436,267.66209 L -349.87936,267.88084 L -350.78561,270.75584 L -351.12936,271.88084 L -351.50436,273.00584 L -353.31686,273.25584 L -358.19186,274.38084 L -361.81686,274.78709 L -368.44186,275.16209 L -374.56686,274.22459 L -376.62936,272.97459 L -378.19186,272.03709 L -381.84811,271.06834 L -381.94186,271.81834 L -379.81686,278.63084 L -377.78561,281.56834 L -376.78561,283.16209 L -375.12936,285.06834 L -374.06686,287.41209 L -372.72311,288.84959 L -371.87936,288.72459 L -370.97311,287.81834 L -370.44186,287.84959 L -368.16061,290.13084 L -366.06686,290.63084 L -365.06686,290.69334 L -365.03561,290.72459 L -363.91061,292.16209 L -363.41061,292.75584 L -363.59811,293.13084 L -364.34811,294.53709 L -364.69186,296.59959 L -364.56686,297.38084 L -363.87936,301.72459 L -364.41061,304.53709 L -364.41061,304.56834 L -363.62936,305.50584 L -361.72311,307.38084 L -361.16061,308.47459 L -361.37936,308.97459 L -361.56686,309.41209 L -361.81686,309.97459 L -362.59811,310.78709 L -363.25436,310.88084 L -364.78561,311.06834 L -364.81686,311.06834 L -366.03561,311.25584 L -368.62936,311.63084 L -369.00436,312.09959 L -372.47311,318.06834 L -373.84811,321.47459 L -374.03561,323.22459 L -374.19186,323.44334 L -375.47311,325.47459 L -377.28561,326.94334 L -378.12936,327.34959 L -378.37936,327.66209 L -379.12936,328.72459 L -380.87936,333.34959 L -383.22311,336.03709 L -379.28561,341.94334 L -378.81686,343.25584 L -380.09811,346.47459 L -379.34811,347.72459 L -378.50436,348.63084 L -378.19186,348.97459 L -378.09811,349.06834 L -377.56686,349.63084 L -376.72311,350.53709 L -376.12936,351.19334 L -376.00436,352.34959 L -377.34811,355.13084 L -377.16061,357.72459 L -377.81686,359.41209 L -377.37936,360.22459 L -376.34811,360.13084 L -373.84811,361.41209 L -373.84811,361.44334 L -371.94186,364.75584 L -369.94186,364.97459 L -368.59811,370.75584 L -369.03561,373.19334 L -367.72311,378.38084 L -368.12936,379.84959 L -370.72311,382.44334 L -371.78561,384.91209 L -372.31686,387.22459 L -371.87936,387.31834 L -368.56686,388.25584 L -366.16061,387.06834 L -362.06686,387.38084 L -356.81686,389.31834 L -353.94186,390.38084 L -353.94186,390.66209 L -350.22311,391.09959 L -347.72311,391.91209 L -345.78561,391.78709 L -343.34811,392.34959 L -341.06686,394.56834 L -341.06686,394.78709 L -338.72311,396.19334 L -335.41061,398.28709 L -330.22311,395.78709 L -328.72311,396.03709 L -328.25436,397.69334 L -328.87936,399.50584 L -326.25436,402.28709 L -327.72311,405.63084 L -329.22311,409.84959 L -328.19186,412.03709 L -328.59811,415.13084 L -328.69186,416.41209 L -327.25436,417.94334 L -326.62936,417.91209 L -324.72311,418.94334 L -324.72311,419.22459 L -324.50436,419.31834 L -323.47311,419.69334 L -320.97311,421.41209 L -317.84811,422.91209 L -316.56686,422.31834 L -314.78561,422.72459 L -312.37936,422.72459 L -311.31686,424.06834 L -309.47311,425.72459 L -308.50436,425.78709 L -307.56686,425.81834 L -307.53561,425.81834 L -304.91061,426.78709 L -303.28561,428.59959 L -301.69186,430.44334 L -299.87936,434.00584 L -298.56686,434.91209 L -298.03561,434.94334 L -295.62936,435.00584 L -291.66061,438.97459 L -289.78561,438.56834 L -288.84811,438.56834 L -286.84811,438.59959 L -285.94186,438.31834 L -285.59811,438.22459 L -283.56686,437.66209 L -282.78561,437.09959 L -277.94186,433.78709 L -275.31686,432.91209 L -274.87936,432.91209 L -271.81686,432.88084 L -271.56686,432.38084 L -271.09811,431.38084 L -271.37936,425.66209 L -271.56686,425.66209 L -270.62936,424.25584 L -270.53561,424.09959 L -270.31686,424.09959 L -269.69186,421.16209 L -269.91061,421.16209 L -268.28561,418.81834 L -267.34811,418.47459 L -263.75436,420.38084 L -261.62936,420.78709 L -261.31686,420.84959 L -258.50436,418.56834 L -259.37936,415.91209 L -259.50436,415.53709 L -258.84811,414.31834 L -256.62936,413.19334 L -255.19186,411.13084 L -253.69186,405.38084 L -252.44186,403.97459 L -248.47311,402.63084 L -246.03561,401.59959 L -245.16061,401.88084 L -240.66061,407.06834 L -240.03561,409.59959 L -240.28561,410.28709 L -239.12936,410.75584 L -237.06686,412.28709 L -234.00436,412.94334 L -232.53561,413.88084 L -231.03561,415.19334 L -229.37936,416.66209 L -229.53561,417.81834 L -229.84811,421.59959 L -230.31686,421.69334 L -230.72311,421.84959 L -231.56686,422.06834 L -232.50436,426.66209 L -233.53561,429.41209 L -233.53561,429.47459 L -233.25436,432.97459 L -232.81686,435.44334 L -231.50436,436.38084 L -229.66061,437.78709 L -227.16061,438.91209 L -227.12936,438.94334 L -226.69186,438.91209 L -224.56686,438.84959 L -222.44186,437.91209 L -220.34811,437.94334 L -220.00436,438.44334 L -220.44186,439.81834 L -220.09811,440.47459 L -218.81686,440.34959 L -214.66061,437.56834 L -211.56686,435.34959 L -209.41061,434.38084 L -205.22311,434.09959 L -202.41061,432.47459 L -201.31686,432.63084 L -198.53561,434.56834 L -198.25436,434.78709 L -197.66061,436.25584 L -196.19186,438.34959 L -194.81686,438.56834 L -192.97311,438.88084 L -190.12936,441.19334 L -187.44186,442.09959 L -186.56686,442.88084 L -186.50436,444.75584 L -190.41061,449.41209 L -191.19186,451.03709 L -190.50436,451.91209 L -188.34811,452.50584 L -185.72311,452.53709 L -184.06686,451.69334 L -183.12936,451.59959 L -181.28561,451.41209 L -180.47311,452.19334 L -179.97311,453.28709 L -179.28561,454.72459 L -178.31686,455.59959 L -177.06686,455.88084 L -176.81686,455.94334 L -174.69186,455.25584 L -171.62936,456.13084 L -171.12936,456.38084 L -169.41061,457.22459 L -167.34811,458.28709 L -165.19186,458.25584 L -161.44186,456.72459 L -161.28561,456.66209 L -158.22311,456.25584 L -153.53561,456.97459 L -152.28561,457.97459 L -149.56686,458.00584 L -146.72311,456.47459 L -146.69186,456.47459 L -145.09811,457.56834 L -144.37936,456.34959 L -144.03561,455.75584 L -142.97311,453.19334 L -142.97311,453.16209 L -142.00436,450.81834 L -141.66061,450.25584 L -140.34811,448.13084 L -139.56686,447.47459 L -136.44186,444.84959 L -135.78561,443.53709 L -135.97311,441.22459 L -136.31686,438.38084 L -136.44186,437.41209 L -135.84811,434.38084 L -132.59811,428.91209 L -132.22311,427.69334 L -132.28561,426.34959 L -132.44186,422.72459 L -130.94186,420.56834 L -130.44186,418.47459 L -127.59811,417.97459 L -125.75436,417.69334 L -125.50436,417.63084 L -123.50436,416.97459 L -122.06686,415.53709 L -122.22311,412.00584 L -122.22311,411.13084 L -121.47311,410.19334 L -116.75436,408.75584 L -114.06686,409.47459 L -112.06686,408.53709 L -109.97311,408.31834 L -108.03561,407.66209 L -106.75436,407.09959 L -106.53561,407.00584 L -105.72311,406.72459 L -104.44186,406.06834 L -102.16061,404.84959 L -98.879357,404.75584 L -97.504357,403.44334 L -95.191857,403.09959 L -93.566857,404.00584 L -92.754357,404.00584 L -91.848107,403.13084 L -91.035607,403.06834 L -89.441857,404.13084 L -85.410607,407.94334 L -83.754357,408.72459 L -81.473107,408.72459 L -79.441857,407.56834 L -77.941857,406.25584 L -76.316857,403.84959 L -73.223107,401.97459 L -72.410607,399.50584 L -71.223107,398.06834 L -69.566857,398.44334 L -68.598107,398.66209 L -68.285607,398.75584 L -66.566857,400.06834 L -66.473107,400.13084 L -66.379357,400.22459 L -60.973107,404.41209 L -59.316857,404.06834 L -55.691857,401.28709 L -51.660607,399.59959 L -47.629357,398.34959 L -45.910607,399.13084 L -41.723107,402.69334 L -40.129357,402.88084 L -37.379357,402.69334 L -35.816857,402.06834 L -34.504357,402.25584 L -32.254357,404.59959 L -29.941857,407.03709 L -28.410607,407.66209 L -26.691857,407.63084 L -23.254357,404.28709 L -21.129357,403.34959 L -17.035607,403.22459 L -14.473107,403.13084 L -12.254357,401.66209 L -11.754357,401.34959 L -10.723107,400.91209 L -10.535607,400.72459 L -8.8793571,399.03709 L -6.6293571,397.53709 L -6.6293571,397.50584 L -6.0668571,397.13084 L -4.4106071,397.09959 L 1.1831429,392.78709 L 4.5268929,392.06834 L 5.3081429,392.19334 L 7.5581429,390.53709 L 8.7456429,389.28709 L 8.9956429,389.03709 L 9.2143929,388.78709 L 9.2143929,389.06834 L 12.120643,389.00584 L 12.401893,389.00584 L 13.526893,389.09959 L 16.370643,389.41209 L 19.214393,386.97459 L 20.714393,386.59959 L 22.714393,387.19334 L 25.339393,386.72459 L 27.901893,383.31834 L 29.308143,382.84959 L 32.558143,383.31834 L 36.120643,381.97459 L 36.933143,381.66209 L 39.183143,381.13084 L 41.464393,379.56834 L 43.151893,379.09959 L 46.964393,380.75584 L 47.714393,380.75584 L 48.151893,380.75584 L 49.964393,381.94334 L 50.183143,382.44334 L 51.120643,384.34959 L 51.089393,384.75584 L 51.058143,385.09959 L 51.058143,385.50584 L 48.464393,388.28709 L 47.464393,390.97459 L 45.870643,393.88084 L 43.589393,394.44334 L 42.433143,394.72459 L 39.776893,395.44334 L 37.183143,395.69334 L 34.151893,398.13084 L 33.089393,400.16209 L 35.026893,405.94334 L 35.464393,410.41209 L 35.870643,410.97459 L 38.433143,413.38084 L 39.964393,415.94334 L 39.839393,417.59959 L 38.526893,419.63084 L 37.526893,422.41209 L 39.339393,423.50584 L 39.870643,423.81834 L 43.026893,424.09959 L 44.308143,424.81834 L 46.151893,427.56834 L 47.089393,429.78709 L 48.308143,431.28709 L 52.901893,427.72459 L 57.526893,428.59959 L 58.808143,432.03709 L 59.933143,433.31834 L 61.308143,438.88084 L 63.089393,440.28709 L 59.339393,445.69334 L 59.839393,450.22459 L 58.808143,451.69334 L 59.901893,453.69334 L 64.683143,453.59959 L 69.526893,455.13084 L 71.683143,458.53709 L 73.714393,465.41209 L 75.120643,469.13084 L 76.214393,470.91209 L 78.558143,472.78709 L 81.839393,474.69334 L 83.714393,476.50584 L 84.839393,476.91209 L 86.714393,476.94334 L 89.214393,477.69334 L 91.651893,479.63084 L 96.776893,479.31834 L 98.620643,480.47459 L 100.37064,482.75584 L 103.05814,484.56834 L 104.62064,484.97459 L 106.05814,484.44334 L 110.71439,484.03709 L 113.18314,483.16209 L 114.62064,483.41209 L 117.21439,485.16209 L 119.37064,484.94334 L 121.52689,484.31834 L 124.99564,484.56834 L 128.68314,486.59959 L 130.99564,489.69334 L 132.15189,489.59959 L 133.93314,487.88084 L 135.37064,486.47459 L 137.18314,486.44334 L 141.55814,487.59959 L 143.83939,490.28709 L 146.93314,490.97459 L 147.77689,491.69334 L 147.93314,494.75584 L 148.30814,496.41209 L 151.24564,497.13084 L 155.87064,496.34959 L 158.71439,495.81834 L 163.83939,496.03709 L 165.15189,496.53709 L 166.62064,497.09959 L 169.46439,497.09959 L 171.58939,498.03709 L 177.02689,498.50584 L 179.40189,499.38084 L 181.74564,499.28709 L 185.99564,498.53709 L 188.08939,498.00584 L 190.83939,499.16209 L 200.52689,500.63084 L 205.65189,504.84959 L 210.15189,507.06834 L 212.65189,509.00584 L 213.49564,508.97459 L 215.93314,507.88084 L 221.46439,508.19334 L 225.30814,509.13084 L 226.58939,508.56834 L 229.65189,505.78709 L 233.62064,505.59959 L 234.40189,503.69334 L 235.96439,503.75584 L 239.43314,505.34959 L 240.62064,507.03709 L 242.30814,507.56834 L 247.18314,508.72459 L 249.93314,507.97459 L 250.77689,508.16209 L 255.27689,506.41209 L 255.93314,507.03709 L 256.74564,509.22459 L 258.96439,510.28709 L 262.87064,509.66209 L 265.27689,510.81834 L 266.68314,512.78709 L 268.15189,512.81834 L 269.80814,511.16209 L 273.52689,511.66209 L 277.15189,513.28709 L 278.02689,513.66209 L 280.02689,514.50584 L 281.96439,515.75584 L 285.55814,516.78709 L 289.74564,517.03709 L 295.46439,517.50584 L 298.30814,518.03709 L 302.55814,520.41209 L 305.49564,520.16209 L 309.27689,518.53709 L 315.18314,517.72459 L 320.46439,517.94334 L 324.21439,518.38084 L 331.62064,522.47459 L 334.40189,524.94334 L 334.99564,525.28709 L 337.05814,526.84959 L 338.40189,526.84959 L 342.71439,523.88084 L 344.83939,524.16209 L 348.74564,525.56834 L 350.96439,525.78709 L 354.87064,528.25584 L 358.05814,533.78709 L 359.93314,536.13084 L 361.15189,538.03709 L 366.37064,536.38084 L 371.65189,536.56834 L 373.43314,538.53709 L 374.46439,538.50584 L 377.62064,537.00584 L 379.93314,535.91209 L 381.30814,536.00584 L 385.40189,537.63084 L 386.43314,538.44334 L 389.68314,538.69334 L 392.52689,537.13084 L 395.87064,537.03709 L 403.93314,535.06834 L 405.12064,535.28709 L 406.12064,536.75584 L 405.27689,538.00584 L 406.80814,539.53709 L 408.18314,540.16209 L 409.65189,540.53709 L 413.33939,543.09959 L 414.68314,542.81834 L 416.74564,541.34959 L 418.62064,539.81834 L 420.71439,542.28709 L 424.15189,548.56834 L 424.77689,551.41209 L 425.96439,552.31834 L 429.08939,551.13084 L 428.80814,549.13084 L 430.68314,545.66209 L 429.24564,541.94334 L 429.15189,540.28709 L 430.05814,538.72459 L 432.74564,537.44334 L 433.68314,536.50584 L 434.99564,536.66209 L 437.27689,535.53709 L 441.33939,535.56834 L 443.96439,534.25584 L 444.62064,533.44334 L 445.12064,530.75584 L 447.24564,531.03709 L 447.83939,530.50584 L 448.77689,527.50584 L 450.21439,525.91209 L 450.24564,523.63084 L 451.12064,522.41209 L 452.37064,521.78709 L 453.65189,522.91209 L 454.83939,521.69334 L 455.96439,522.63084 L 457.37064,522.03709 L 459.74564,522.34959 L 460.80814,523.00584 L 462.33939,522.81834 L 467.08939,520.59959 L 467.77689,519.31834 L 467.80814,516.44334 L 469.05814,513.50584 L 469.12064,510.91209 L 470.02689,509.75584 L 469.71439,506.81834 L 470.74564,505.13084 L 472.80814,502.94334 L 474.87064,499.06834 L 475.33939,497.03709 L 477.55814,495.75584 L 478.96439,495.84959 L 482.55814,497.09959 L 483.68314,496.84959 L 483.55814,494.44334 L 486.55814,492.81834 L 487.40189,492.38084 L 489.43314,491.34959 L 491.15189,492.09959 L 491.68314,492.34959 L 491.90189,493.19334 L 492.74564,497.00584 L 493.65189,497.97459 L 494.12064,497.06834 L 494.87064,495.69334 L 495.55814,494.38084 L 495.96439,493.50584 L 496.55814,492.56834 L 497.87064,490.16209 L 499.12064,488.56834 L 500.12064,488.22459 L 502.83939,485.97459 L 507.37064,485.22459 L 508.05814,485.72459 L 509.90189,487.06834 L 510.55814,486.97459 L 513.30814,484.97459 L 515.68314,484.84959 L 517.05814,485.94334 L 520.49564,484.44334 L 523.90189,485.28709 L 526.74564,485.25584 L 529.71439,487.88084 L 532.80814,487.94334 L 534.90189,488.66209 L 540.68314,487.84959 L 542.74564,486.25584 L 544.37064,485.56834 L 546.55814,485.63084 L 549.46439,485.28709 L 551.68314,486.38084 L 553.05814,486.28709 L 556.58939,486.31834 L 563.62064,484.97459 L 566.71444,488.34959 L 568.83944,488.84959 L 570.46444,488.50584 L 570.33944,490.88084 L 571.43314,493.47459 L 571.96444,494.72459 L 572.80814,495.53709 L 576.30814,494.25584 L 578.05814,494.88084 L 579.52684,494.13084 L 580.30814,493.41209 L 584.58944,490.06834 L 586.30814,486.34959 L 585.08944,483.56834 L 584.99564,481.66209 L 587.24564,480.63084 L 588.55814,479.09959 L 593.99564,477.38084 L 594.27684,478.25584 L 594.90184,478.63084 L 596.74564,478.78709 L 598.18314,478.22459 L 600.40184,476.59959 L 601.43314,476.13084 L 602.12064,475.81834 L 602.71444,473.47459 L 604.55814,472.94334 L 606.93314,473.63084 L 609.58944,475.25584 L 612.18314,475.56834 L 614.08944,474.97459 L 616.15184,474.97459 L 618.93314,476.03709 L 623.43314,474.03709 L 627.21444,471.03709 L 630.99564,469.97459 L 634.96444,469.94334 L 638.24564,470.31834 L 641.55814,471.50584 L 646.96444,475.53709 L 649.83944,477.81834 L 652.12064,478.28709 L 655.05814,478.00584 L 655.74564,478.34959 L 657.52684,480.25584 L 658.87064,481.69334 L 659.87064,482.22459 L 663.15184,484.00584 L 664.02684,479.06834 L 663.62064,476.56834 L 659.27684,470.91209 L 655.40184,464.53709 L 655.46444,460.13084 L 655.87064,457.66209 L 655.05814,454.94334 L 655.83944,452.22459 L 655.71444,449.69334 L 656.80814,447.53709 L 655.68314,445.97459 L 655.27684,444.63084 L 655.52684,442.75584 L 656.12064,441.84959 L 657.87064,442.19334 L 659.08944,441.53709 L 660.15184,441.00584 L 660.80814,440.88084 L 662.37064,440.56834 L 662.96444,441.34959 L 664.37064,440.25584 L 667.40184,440.09959 L 668.18314,437.78709 L 672.18314,434.38084 L 673.40184,434.72459 L 675.58944,433.13084 L 679.18314,430.44334 L 680.65184,428.53709 L 683.15184,424.72459 L 685.37064,423.19334 L 685.68314,422.38084 L 687.27684,419.84959 L 688.93314,417.16209 L 689.77684,415.78709 L 693.02684,415.00584 L 693.96444,414.47459 L 694.62064,413.50584 L 695.62064,413.22459 L 695.46444,411.84959 L 696.68314,410.88084 L 700.52684,410.41209 L 700.62064,410.13084 L 701.46444,408.19334 L 701.15184,405.84959 L 701.05814,405.13084 L 701.99564,402.75584 L 703.33944,398.75584 L 704.52684,398.44334 L 705.80814,400.34959 L 707.15184,401.41209 L 708.96444,400.59959 L 711.93314,401.00584 L 715.05814,400.00584 L 717.18314,399.63084 L 718.90184,400.75584 L 721.18314,401.13084 L 723.37064,400.50584 L 724.99564,400.53709 L 726.08944,401.78709 L 727.55814,402.47459 L 730.52684,400.91209 L 731.65184,401.88084 L 734.55814,402.66209 L 737.02684,402.00584 L 739.68314,401.84959 L 740.40184,400.75584 L 740.55814,400.47459 L 740.46444,399.47459 L 738.55814,398.19334 L 735.87064,396.19334 L 734.12064,394.91209 L 732.30814,394.59959 L 730.05814,395.19334 L 729.33944,394.69334 L 730.83944,391.63084 L 733.18314,390.47459 L 734.43314,389.88084 L 738.74564,389.28709 L 740.90184,387.44334 L 740.90184,386.16209 L 739.37064,385.22459 L 736.87064,384.78709 L 734.05814,383.16209 L 733.96444,380.50584 L 733.55814,379.84959 L 732.93314,378.81834 L 733.27684,377.75584 L 734.08944,377.34959 L 735.93314,376.38084 L 736.77684,375.22459 L 737.96444,374.47459 L 738.90184,372.31834 L 741.80814,370.84959 L 742.52684,369.91209 L 741.68314,367.59959 L 740.24564,365.81834 L 736.80814,366.31834 L 732.55814,366.47459 L 730.58944,366.56834 L 730.15184,364.91209 L 730.08944,364.75584 L 730.71444,363.31834 L 731.71444,362.41209 L 733.02684,361.19334 L 731.62064,358.78709 L 731.30814,358.47459 L 729.21444,356.56834 L 726.99564,356.31834 L 726.02684,355.47459 L 725.52684,353.75584 L 724.77684,351.25584 L 725.18314,350.50584 L 725.52684,349.97459 L 727.37064,349.88084 L 727.87064,349.22459 L 728.46444,345.06834 L 729.02684,343.06834 L 727.83944,341.50584 L 731.08944,340.31834 L 733.33944,340.03709 L 734.43314,339.09959 L 734.90184,337.38084 L 735.62064,334.59959 L 736.90184,333.50584 L 734.87064,327.75584 L 734.05814,326.38084 L 733.77684,325.16209 L 733.05814,322.03709 L 731.74564,319.97459 L 729.68314,318.94334 L 728.12064,317.06834 L 727.87064,316.16209 L 728.58944,315.56834 L 730.52684,315.22459 L 731.55814,313.47459 L 730.99564,310.41209 L 730.93314,307.19334 L 730.71444,307.16209 L 729.90184,305.25584 L 730.62064,303.19334 L 731.52684,302.69334 L 735.33944,303.22459 L 736.30814,304.63084 L 736.12064,305.53709 L 737.71444,306.19334 L 738.62064,307.19334 L 741.65184,303.53709 L 741.90184,303.22459 L 742.83944,303.25584 L 747.55814,303.47459 L 748.49564,303.00584 L 750.37064,302.78709 L 752.21444,300.31834 L 753.68314,300.25584 L 755.55814,298.94334 L 755.90184,298.81834 L 755.93314,298.81834 L 757.68314,298.19334 L 758.90184,296.06834 L 763.27684,291.88084 L 763.46444,291.69334 L 763.77684,291.38084 L 764.65184,289.94334 L 765.58944,288.34959 L 765.55814,286.69334 L 764.02684,284.75584 L 762.93314,282.69334 L 763.15184,281.09959 L 764.71444,280.22459 L 767.08944,280.44334 L 768.87064,279.06834 L 770.99564,276.44334 L 771.27684,274.63084 L 772.30814,273.00584 L 772.18314,272.34959 L 771.93314,271.41209 L 770.74564,270.63084 L 768.30814,267.06834 L 766.55814,266.56834 L 765.49564,265.44334 L 766.68314,263.59959 L 766.52684,262.09959 L 765.33944,259.25584 L 765.05814,257.22459 L 764.90184,256.06834 L 763.55814,254.81834 L 762.74564,252.50584 L 761.02684,251.03709 L 758.68314,251.00584 L 756.49564,252.00584 L 753.93314,253.16209 L 752.37064,252.59959 L 750.24564,252.63084 L 748.93314,251.81834 L 748.65184,251.53709 L 745.33944,249.31834 L 742.93314,248.00584 L 741.80814,246.88084 L 740.87064,246.88084 L 738.74564,247.94334 L 737.74564,247.66209 L 737.40184,247.56834 L 736.18314,246.06834 L 733.68314,245.16209 L 730.96444,244.81834 L 728.33944,243.38084 L 726.83944,243.19334 L 726.40184,242.09959 L 727.08944,240.91209 L 727.30814,240.94334 L 729.27684,239.03709 L 728.99564,239.00584 L 729.46444,235.94334 L 729.96444,235.09959 L 731.15184,235.00584 L 732.80814,237.47459 L 733.71444,237.94334 L 734.49564,237.53709 L 734.93314,235.59959 L 737.65184,233.13084 L 737.77684,233.00584 L 740.99564,231.44334 L 742.24564,230.53709 L 744.80814,230.53709 L 745.02684,230.44334 L 745.83944,228.97459 L 746.46444,227.78709 L 746.18314,226.88084 L 745.55814,224.84959 L 744.65184,224.00584 L 745.15184,223.41209 L 747.43314,220.59959 L 749.02684,220.25584 L 750.71444,220.50584 L 752.40184,219.66209 L 754.02684,220.72459 L 756.27684,218.78709 L 757.12064,218.78709 L 758.40184,219.78709 L 760.02684,219.50584 L 761.12064,219.88084 L 762.80814,221.97459 L 763.33944,222.31834 L 764.74564,223.22459 L 769.21444,223.63084 L 769.71444,223.66209 L 771.49564,224.22459 L 772.52684,225.38084 L 773.27684,226.22459 L 774.99564,229.78709 L 775.18314,230.09959 L 775.87064,231.25584 L 777.24564,233.63084 L 777.33944,233.84959 L 778.87064,237.19334 L 781.62064,237.53709 L 789.02684,237.78709 L 790.12064,237.72459 L 791.15184,237.66209 L 792.02684,236.44334 L 793.15184,233.47459 L 795.02684,231.50584 L 795.80814,231.34959 L 797.05814,229.09959 L 797.96444,229.13084 L 798.37064,234.41209 L 799.37064,235.97459 L 800.99564,235.78709 L 803.87064,235.91209 L 804.49564,235.94334 L 810.30814,234.53709 L 816.46444,233.41209 L 833.18314,230.31834 L 830.83944,227.78709 L 830.18314,225.47459 L 829.80814,219.25584 L 829.55814,214.03709 L 828.24564,210.44334 L 830.15184,208.78709 L 831.55814,207.53709 L 828.15184,202.59959 L 828.40184,201.47459 L 828.71444,200.19334 L 827.90184,198.47459 L 827.74564,198.38084 L 822.27684,194.44334 L 822.40184,193.22459 L 823.05814,192.75584 L 826.65184,192.69334 L 828.80814,191.81834 L 830.08944,191.28709 L 833.68314,189.50584 L 835.55814,186.38084 L 835.21444,183.47459 L 836.55814,180.88084 L 836.87064,180.28709 L 834.52684,178.00584 L 834.15184,177.66209 L 834.74564,176.25584 L 834.90184,175.81834 L 835.55814,173.94334 L 835.65184,173.84959 L 836.49564,173.00584 L 837.93314,171.53709 L 837.90184,169.91209 L 834.87064,168.53709 L 836.46444,165.94334 L 843.77684,160.56834 L 844.77684,158.63084 L 844.12064,158.13084 L 841.58944,155.19334 L 839.37064,154.78709 L 837.37064,153.44334 L 834.93314,154.84959 L 833.12064,154.88084 L 832.02684,154.38084 L 831.80814,152.56834 L 833.18314,149.66209 L 833.08944,148.44334 L 831.87064,147.28709 L 831.83944,146.47459 L 832.71444,145.47459 L 832.40184,144.47459 L 831.87064,142.97459 L 832.83944,140.31834 L 834.77684,136.91209 L 834.62064,136.25584 L 833.80814,135.97459 L 831.90184,135.34959 L 831.02684,134.84959 L 830.46444,132.50584 L 830.21444,131.81834 L 829.68314,130.50584 L 828.93314,128.69334 L 828.43314,127.41209 L 827.71444,126.72459 L 826.77684,125.84959 L 824.33944,124.50584 L 821.62064,121.47459 L 817.46444,118.91209 L 816.83944,115.50584 L 816.33944,114.16209 L 814.62064,108.63084 L 812.71444,104.78709 L 812.30814,102.81834 L 812.08944,101.84959 L 812.27684,97.38084 L 812.15184,95.69334 L 811.24564,94.56834 L 807.68314,94.16209 L 807.18314,93.22459 L 805.68314,90.47459 L 804.33944,89.34959 L 803.27684,85.91209 L 804.90184,83.97459 L 805.08944,82.16209 L 803.99564,80.38084 L 801.46444,79.50584 L 800.37064,78.44334 L 798.99564,75.53709 L 796.68314,75.50584 L 795.27684,74.97459 L 794.05814,70.72459 L 794.43314,68.47459 L 796.55814,65.28709 L 796.96444,64.16209 L 797.21444,60.72459 L 795.40184,54.59959 L 795.43314,52.94334 L 796.83944,50.88084 L 796.68314,50.06834 L 797.52684,48.69334 L 798.46444,48.06834 L 800.05814,45.59959 L 801.83944,44.69334 L 802.18314,41.56834 L 802.90184,40.94334 L 805.30814,40.13084 L 805.90184,37.22459 L 806.46444,36.28709 L 809.52684,34.81834 L 810.93314,29.69334 L 810.55814,28.63084 L 810.58944,27.28709 L 808.62064,23.56834 L 808.37064,22.31834 L 808.65184,20.00584 L 808.33944,15.66209 L 809.93314,14.16209 L 810.12064,11.97459 L 808.30814,11.59959 L 807.21444,11.38084 L 806.08944,9.6620902 L 806.12064,7.3808402 L 806.87064,3.1933402 L 806.30814,-0.9004098 L 805.02684,-2.6504098 L 805.77684,-4.5254098 L 805.99564,-7.2129098 L 804.27684,-9.5879098 L 803.58944,-11.21291 L 802.96444,-11.83791 L 801.27684,-11.83791 L 798.21444,-11.74416 L 797.68314,-11.71291 L 796.87064,-11.52541 L 795.02684,-11.08791 L 791.96444,-11.33791 L 788.18314,-10.33791 L 786.80814,-9.4629098 L 785.83944,-9.2754098 L 783.93314,-11.18166 L 781.37064,-10.83791 L 780.08944,-11.36916 L 779.02684,-13.02541 L 778.65184,-14.05666 L 777.62064,-14.21291 L 775.80814,-15.11916 L 775.05814,-16.36916 L 771.96444,-16.80666 L 770.33944,-15.99416 L 768.27684,-14.05666 L 767.37064,-14.49416 L 765.96444,-16.52541 L 766.49564,-18.02541 L 766.99564,-21.74416 L 765.24564,-25.58791 L 763.27684,-27.27541 L 760.40184,-28.33791 L 758.18314,-26.55666 L 756.37064,-26.49416 L 755.08944,-26.90041 L 754.33944,-27.15041 L 751.96444,-29.24416 L 749.24564,-30.08791 L 745.40184,-33.68166 L 743.93314,-34.30666 L 741.18314,-31.33791 L 737.24564,-30.46291 L 736.55814,-30.61916 L 735.12064,-30.93166 L 732.83944,-31.40041 L 730.21444,-30.65041 L 728.08944,-25.99416 L 725.77684,-22.08791 L 723.96444,-20.24416 L 722.30814,-17.58791 L 720.71444,-16.33791 L 718.93314,-14.96291 L 717.77684,-14.46291 L 716.52684,-15.27541 L 715.96444,-15.96291 L 714.71444,-17.49416 L 713.68314,-17.71291 L 711.24564,-14.93166 L 710.62064,-14.86916 L 706.15184,-16.55666 L 702.90184,-17.43166 L 698.24564,-16.46291 L 695.74564,-16.74416 L 693.21444,-17.05666 L 690.24564,-17.15041 L 687.80814,-18.30666 L 686.37064,-18.55666 L 679.27684,-18.02541 L 675.27684,-18.08791 L 671.46444,-19.05666 L 668.58944,-20.33791 L 663.80814,-22.46291 L 660.68314,-25.11916 L 658.87064,-26.65041 L 657.55814,-28.40041 L 657.55814,-27.24416 L 656.71444,-27.61916 L 654.65184,-29.96291 L 649.27684,-34.05666 L 649.27684,-35.46291 L 650.58944,-37.30666 L 649.65184,-38.30666 L 648.87064,-38.68166 L 647.87064,-39.15041 L 647.12064,-36.77541 L 645.02684,-38.05666 L 645.46444,-40.55666 L 644.65184,-40.77541 L 643.96444,-41.61916 L 642.93314,-41.30666 L 640.99564,-41.02541 L 640.40184,-42.36916 L 639.49564,-42.68166 L 638.05814,-43.15041 L 636.46444,-45.02541 L 635.30814,-44.96291 L 632.83944,-45.90041 L 631.80814,-47.11916 L 633.21444,-48.33791 L 632.96444,-49.21291 L 631.65184,-50.21291 L 629.62064,-49.77541 L 628.12064,-50.30666 L 626.93314,-50.11916 L 621.58944,-50.61916 L 619.93314,-47.65041 L 617.62064,-45.36916 L 611.87064,-46.46291 L 609.99564,-47.18166 L 606.62064,-46.49416 L 605.71444,-47.86916 L 604.68314,-48.55666 L 601.99564,-51.74416 L 600.46444,-53.05666 L 599.37064,-53.21291 L 597.40184,-53.52541 L 595.55814,-55.93166 L 592.65184,-56.11916 L 589.12064,-55.68166 L 587.83944,-56.58791 L 586.27684,-57.65041 L 578.52684,-60.33791 L 577.62064,-61.61916 L 576.93314,-64.74416 L 576.24564,-66.05666 L 572.08944,-67.77541 L 571.62064,-69.11916 L 569.99564,-67.83791 L 569.33944,-67.93166 L 568.27684,-68.93166 L 564.90189,-68.99416 L 562.90189,-70.11916 L 561.05814,-72.02541 L 559.24564,-72.40041 L 555.77689,-76.18166 L 552.77689,-76.58791 L 549.37064,-76.65041 L 548.33939,-75.15041 L 546.62064,-75.83791 L 545.02689,-75.43166 L 544.21439,-75.68166 L 543.15189,-78.24416 L 541.37064,-79.68166 L 540.83939,-78.18166 L 541.74564,-75.74416 L 540.40189,-72.90041 L 539.37064,-71.90041 L 539.58939,-70.77541 L 537.99564,-69.83791 L 534.08939,-70.65041 L 532.58939,-70.96291 L 530.30814,-70.33791 L 528.68314,-69.18166 L 527.77689,-67.83791 L 526.93314,-67.27541 L 525.68314,-67.58791 L 524.74564,-68.40041 L 523.49564,-69.55666 L 523.52689,-72.27541 L 522.77689,-73.46291 L 522.40189,-75.30666 L 520.30814,-76.08791 L 521.65189,-76.99416 L 521.83939,-78.18166 L 521.49564,-79.40041 L 519.02689,-80.33791 L 516.21439,-80.33791 L 515.27689,-80.49416 L 514.55814,-81.05666 L 513.43314,-81.02541 L 511.65189,-79.83791 L 508.99564,-80.30666 L 507.68314,-80.05666 L 507.27689,-81.49416 L 507.43314,-83.24416 L 506.58939,-84.08791 L 503.90189,-83.65041 L 502.55814,-83.90041 L 500.83939,-85.05666 z" id="path2520"/>
  </g>
</svg>