<?xml version="1.0" encoding="utf-8"?>
<svg viewBox="0 0 500 500" xmlns="http://www.w3.org/2000/svg">
  <defs/>
  <path d="M 170 0 C 186.569 0 200 13.431 200 30 L 200 70 C 200 86.569 186.569 100 170 100 L 100 100 L 100 170 C 100 186.569 86.569 200 70 200 L 30 200 C 13.431 200 0 186.569 0 170 L 0 30 C 0 13.431 13.431 0 30 0 Z M 0 70 C 0 70 0 70 0 70 Z" style=""/>
  <path d="M 500 170 C 500 186.569 486.569 200 470 200 L 430 200 C 413.431 200 400 186.569 400 170 L 400 100 L 330 100 C 313.431 100 300 86.569 300 70 L 300 30 C 300 13.431 313.431 0 330 0 L 470 0 C 486.569 0 500 13.431 500 30 L 500 170 Z M 430 0 C 430 0 430 0 430 0 Z" style=""/>
  <path d="M 170 500 C 186.569 500 200 486.569 200 470 L 200 430 C 200 413.431 186.569 400 170 400 L 100 400 L 100 330 C 100 313.431 86.569 300 70 300 L 30 300 C 13.431 300 0 313.431 0 330 L 0 470 C 0 486.569 13.431 500 30 500 L 170 500 Z M 0 430 C 0 430 0 430 0 430 Z" style=""/>
  <path d="M 500 330 C 500 313.431 486.569 300 470 300 L 430 300 C 413.431 300 400 313.431 400 330 L 400 400 L 330 400 C 313.431 400 300 413.431 300 430 L 300 470 C 300 486.569 313.431 500 330 500 L 470 500 C 486.569 500 500 486.569 500 470 L 500 330 Z M 430 500 C 430 500 430 500 430 500 Z" style=""/>
</svg>