<?xml version="1.0" encoding="utf-8"?>
<svg viewBox="0 0 500 500" xmlns="http://www.w3.org/2000/svg" xmlns:bx="https://boxy-svg.com">
  <defs/>
  <path style="" transform="matrix(0.724834, 0, 0, 0.724834, -149.969269, -142.482452)" d="M 514.362077288 245.064 L 589.253922712 245.064 L 646.163725207 196.572558308 A 357.58 357.58 0 0 1 728.974110658 230.873743067 L 734.926790668 305.403677577 L 787.883322423 358.360209332 L 862.413256933 364.312889342 A 357.58 357.58 0 0 1 896.714441692 447.123274793 L 848.223 504.033077288 L 848.223 578.924922712 L 896.714441692 635.834725207 A 357.58 357.58 0 0 1 862.413256933 718.645110658 L 787.883322423 724.597790668 L 734.926790668 777.554322423 L 728.974110658 852.084256933 A 357.58 357.58 0 0 1 646.163725207 886.385441692 L 589.253922712 837.894 L 514.362077288 837.894 L 457.452274793 886.385441692 A 357.58 357.58 0 0 1 374.641889342 852.084256933 L 368.689209332 777.554322423 L 315.732677577 724.597790668 L 241.202743067 718.645110658 A 357.58 357.58 0 0 1 206.901558308 635.834725207 L 255.393 578.924922712 L 255.393 504.033077288 L 206.901558308 447.123274793 A 357.58 357.58 0 0 1 241.202743067 364.312889342 L 315.732677577 358.360209332 L 368.689209332 305.403677577 L 374.641889342 230.873743067 A 357.58 357.58 0 0 1 457.452274793 196.572558308 Z M 551.808 432.489 A 108.99 108.99 0 0 0 551.808 650.469 A 108.99 108.99 0 0 0 551.808 432.489" bx:shape="cog 551.808 541.479 108.99 357.58 296.415 0.36 8 1@4047e3a9"/>
</svg>