<?xml version="1.0" encoding="utf-8"?>
<svg viewBox="0 0 300 500" xmlns="http://www.w3.org/2000/svg">
  <defs/>
  <path d="M 150 499 L 22.435 228.952 C 8.212 206.02 0 178.969 0 150 C 0 67.157 67.157 0 150 0 C 232.843 0 300 67.157 300 150 C 300 178.969 291.788 206.02 277.565 228.952 Z M 62 155.344 C 62 223.086 135.333 265.425 194 231.554 C 221.227 215.835 238 186.783 238 155.344 C 238 87.602 164.667 45.263 106 79.134 C 78.773 94.853 62 123.905 62 155.344 Z M 100 155.344 C 100 116.854 141.667 92.798 175 112.043 C 190.47 120.974 200 137.481 200 155.344 C 200 193.834 158.333 217.89 125 198.645 C 109.53 189.714 100 173.207 100 155.344 Z" style=""/>
</svg>