<?xml version="1.0" encoding="utf-8"?>
<svg viewBox="0 0 900 600" xmlns="http://www.w3.org/2000/svg">
  <defs/>
  <g>
    <title>AT Flag</title>
    <path d="M 0 0 L 462.852 0 C 477.805 14.096 493.421 32.363 504.856 54.596 C 519.886 83.819 527.836 119.592 518.218 162.671 C 515.554 174.603 511.553 187.044 505.978 200 L 0 200 Z M 900 0 L 900 200 L 511.358 200 C 516.661 187.43 520.511 175.345 523.098 163.761 C 532.947 119.647 524.623 82.097 509.302 52.309 C 498.389 31.091 483.999 13.657 469.984 0 Z" style="fill: rgb(255, 0, 0);">
      <title>1</title>
    </path>
    <path d="M 0 200 L 505.978 200 C 491.341 234.015 465.855 271.583 425.228 312.839 C 394.61 344.021 373.969 373.128 361.124 400 L 0 400 Z M 900 200 L 900 400 L 366.554 400 C 379.154 374.274 399.153 346.427 428.792 316.345 C 470.405 273.989 496.548 235.102 511.358 200 Z" style="fill: rgb(255, 255, 255);">
      <title>2</title>
    </path>
    <path d="M 0 400 L 361.124 400 C 352.114 418.85 346.94 436.601 344.85 453.195 C 339.758 493.625 352.856 527.908 372.284 554.929 C 385.207 572.902 401.031 587.937 416.397 600 L 0 600 Z M 900 400 L 900 600 L 424.563 600 C 407.995 587.595 390.42 571.587 376.344 552.01 C 357.288 525.507 344.866 493.081 349.811 453.82 C 351.927 437.018 357.203 419.093 366.554 400 Z" style="fill: rgb(255, 0, 0);">
      <title>3</title>
    </path>
  </g>
  <g style="">
    <title>DE Flag</title>
    <path d="M 900 0 L 900 200 L 511.358 200 C 516.661 187.43 520.511 175.345 523.098 163.761 C 532.947 119.647 524.623 82.097 509.302 52.309 C 498.389 31.091 483.999 13.657 469.984 0 L 900 0 Z" style="">
      <title>1</title>
    </path>
    <path d="M 900 200 L 900 400 L 366.554 400 C 379.154 374.274 399.153 346.427 428.792 316.345 C 470.405 273.989 496.548 235.102 511.358 200 L 900 200 Z" style="fill: rgb(255, 0, 0);">
      <title>2</title>
    </path>
    <path d="M 900 400 L 900 600 L 424.563 600 C 407.995 587.595 390.42 571.587 376.344 552.01 C 357.288 525.507 344.866 493.081 349.811 453.82 C 351.927 437.018 357.203 419.093 366.554 400 L 900 400 Z" style="fill: rgb(255, 204, 0);">
      <title>3</title>
    </path>
  </g>
</svg>