<?xml version="1.0" encoding="utf-8"?>
<svg viewBox="0 0 900 600" xmlns="http://www.w3.org/2000/svg">
  <defs/>
  <g>
    <title>Flag</title>
    <path d="M 0 0 L 462.852 0 C 477.805 14.096 493.421 32.363 504.856 54.596 C 519.886 83.819 527.836 119.592 518.218 162.671 C 515.554 174.603 511.553 187.044 505.978 200 C 491.341 234.015 465.855 271.583 425.228 312.839 C 394.61 344.021 373.969 373.128 361.124 400 C 352.114 418.85 346.94 436.601 344.85 453.195 C 339.758 493.625 352.856 527.908 372.284 554.929 C 385.207 572.902 401.031 587.937 416.397 600 L 0 600 L 0 0 Z" style="fill: rgb(255, 0, 0); visibility: hidden;"/>
    <path d="M 900 0 L 900 600 L 424.563 600 C 407.995 587.595 390.42 571.587 376.344 552.01 C 357.288 525.507 344.866 493.081 349.811 453.82 C 351.927 437.018 357.203 419.093 366.554 400 C 379.154 374.274 399.153 346.427 428.792 316.345 C 470.405 273.989 496.548 235.102 511.358 200 C 516.661 187.43 520.511 175.345 523.098 163.761 C 532.947 119.647 524.623 82.097 509.302 52.309 C 498.389 31.091 483.999 13.657 469.984 0 Z" style="visibility: hidden;"/>
  </g>
  <g style="" transform="matrix(0.154487, 0, 0, 0.154487, 407.530487, 261.124847)">
    <title>US Flag</title>
    <path d="M 309.852 -1090.598 L 309.852 -1390.598 L 600.462 -1390.598 C 610.701 -1373.106 620.566 -1355.196 629.992 -1336.869 C 668.707 -1261.595 700.164 -1179.608 720.087 -1090.598 Z M 309.852 -490.598 L 309.852 -790.598 L 740.075 -790.598 C 735.979 -741.169 728.269 -690.079 716.484 -637.295 C 705.847 -589.653 691.917 -540.757 674.334 -490.598 Z M 309.852 109.402 L 309.852 -190.598 L 531.873 -190.598 C 474.617 -94.535 404.128 5.445 318.486 109.402 Z M -405.733 1243.277 C -408.546 1265.61 -410.501 1287.653 -411.647 1309.402 L -2637.96 1309.402 L -2637.96 1009.402 L -347.264 1009.402 C -377.411 1090.871 -396.361 1168.87 -405.733 1243.277 Z M -228.152 1901.805 C -226.325 1904.346 -224.488 1906.879 -222.643 1909.402 L -2637.96 1909.402 L -2637.96 1609.402 L -375.165 1609.402 C -342.288 1717.738 -290.209 1815.495 -228.152 1901.805 Z M -192.871 709.402 L -2637.96 709.402 L -2637.96 409.402 L 43.607 409.402 C -51.714 513.157 -129.868 613.206 -192.871 709.402 Z" style="fill: rgb(255, 255, 255);">
      <title>White Stripes</title>
    </path>
    <path d="M 309.852 -1390.598 L 309.852 -1690.271 L 358.098 -1690.271 C 442.563 -1610.646 530.297 -1510.462 600.462 -1390.598 Z M 309.852 -790.598 L 309.852 -1090.598 L 720.087 -1090.598 C 740.753 -998.268 749.007 -898.383 740.075 -790.598 Z M 309.852 -190.598 L 309.852 -490.598 L 674.334 -490.598 C 663.412 -459.441 651.081 -427.797 637.254 -395.663 C 608.74 -329.399 573.865 -261.052 531.873 -190.598 Z M 309.852 109.402 L 318.486 109.402 C 315.625 112.875 312.747 116.353 309.852 119.835 Z M -300.391 898.944 C -318.313 936.439 -333.89 973.262 -347.264 1009.402 L -2637.96 1009.402 L -2637.96 709.402 L -192.871 709.402 C -235.412 774.354 -271.045 837.55 -300.391 898.944 Z M 57.393 2193.551 L -2637.96 2193.551 L -2637.96 1909.402 L -222.643 1909.402 C -140.027 2022.388 -39.898 2117.173 57.393 2193.551 Z M -375.165 1609.402 L -2637.96 1609.402 L -2637.96 1309.402 L -411.647 1309.402 C -417.301 1416.75 -403.228 1516.93 -375.165 1609.402 Z" style="fill: rgb(255, 0, 0);">
      <title>Red Stripes</title>
    </path>
    <path d="M -2637.96 -1690.271 L 309.852 -1690.271 L 309.852 119.835 C 251.78 189.679 186.874 261.311 114.557 334.748 C 89.918 359.841 66.277 384.726 43.607 409.402 L -2637.96 409.402 Z" fill="#0a3161" style="">
      <title>Blue Square</title>
    </path>
    <path d="M -1913.148 -1600.598 L -1886.206 -1517.68 L -1799.021 -1517.68 L -1869.556 -1466.434 L -1842.614 -1383.516 L -1913.148 -1434.762 L -1983.682 -1383.516 L -1956.74 -1466.434 L -2027.275 -1517.68 L -1940.09 -1517.68 Z M -2407.148 -1600.598 L -2380.206 -1517.68 L -2293.021 -1517.68 L -2363.556 -1466.434 L -2336.614 -1383.516 L -2407.148 -1434.762 L -2477.682 -1383.516 L -2450.74 -1466.434 L -2521.275 -1517.68 L -2434.09 -1517.68 Z M -2407.148 -1180.598 L -2380.206 -1097.68 L -2293.021 -1097.68 L -2363.556 -1046.434 L -2336.614 -963.516 L -2407.148 -1014.762 L -2477.682 -963.516 L -2450.74 -1046.434 L -2521.275 -1097.68 L -2434.09 -1097.68 Z M -2407.148 -760.598 L -2380.206 -677.68 L -2293.021 -677.68 L -2363.556 -626.434 L -2336.614 -543.516 L -2407.148 -594.762 L -2477.682 -543.516 L -2450.74 -626.434 L -2521.275 -677.68 L -2434.09 -677.68 Z M -2407.148 -340.598 L -2380.206 -257.68 L -2293.021 -257.68 L -2363.556 -206.434 L -2336.614 -123.516 L -2407.148 -174.762 L -2477.682 -123.516 L -2450.74 -206.434 L -2521.275 -257.68 L -2434.09 -257.68 Z M -2407.148 79.402 L -2380.206 162.32 L -2293.021 162.32 L -2363.556 213.566 L -2336.614 296.484 L -2407.148 245.238 L -2477.682 296.484 L -2450.74 213.566 L -2521.275 162.32 L -2434.09 162.32 Z M -2160.148 -1390.598 L -2133.206 -1307.68 L -2046.021 -1307.68 L -2116.556 -1256.434 L -2089.614 -1173.516 L -2160.148 -1224.762 L -2230.682 -1173.516 L -2203.74 -1256.434 L -2274.275 -1307.68 L -2187.09 -1307.68 Z M -2160.148 -970.598 L -2133.206 -887.68 L -2046.021 -887.68 L -2116.556 -836.434 L -2089.614 -753.516 L -2160.148 -804.762 L -2230.682 -753.516 L -2203.74 -836.434 L -2274.275 -887.68 L -2187.09 -887.68 Z M -2160.148 -550.598 L -2133.206 -467.68 L -2046.021 -467.68 L -2116.556 -416.434 L -2089.614 -333.516 L -2160.148 -384.762 L -2230.682 -333.516 L -2203.74 -416.434 L -2274.275 -467.68 L -2187.09 -467.68 Z M -2160.148 -130.598 L -2133.206 -47.68 L -2046.021 -47.68 L -2116.556 3.566 L -2089.614 86.484 L -2160.148 35.238 L -2230.682 86.484 L -2203.74 3.566 L -2274.275 -47.68 L -2187.09 -47.68 Z M -1913.148 -1180.598 L -1886.206 -1097.68 L -1799.021 -1097.68 L -1869.556 -1046.434 L -1842.614 -963.516 L -1913.148 -1014.762 L -1983.682 -963.516 L -1956.74 -1046.434 L -2027.275 -1097.68 L -1940.09 -1097.68 Z M -1913.148 -760.598 L -1886.206 -677.68 L -1799.021 -677.68 L -1869.556 -626.434 L -1842.614 -543.516 L -1913.148 -594.762 L -1983.682 -543.516 L -1956.74 -626.434 L -2027.275 -677.68 L -1940.09 -677.68 Z M -1913.148 -340.598 L -1886.206 -257.68 L -1799.021 -257.68 L -1869.556 -206.434 L -1842.614 -123.516 L -1913.148 -174.762 L -1983.682 -123.516 L -1956.74 -206.434 L -2027.275 -257.68 L -1940.09 -257.68 Z M -1913.148 79.402 L -1886.206 162.32 L -1799.021 162.32 L -1869.556 213.566 L -1842.614 296.484 L -1913.148 245.238 L -1983.682 296.484 L -1956.74 213.566 L -2027.275 162.32 L -1940.09 162.32 Z M -1666.148 -1390.598 L -1639.206 -1307.68 L -1552.021 -1307.68 L -1622.556 -1256.434 L -1595.614 -1173.516 L -1666.148 -1224.762 L -1736.682 -1173.516 L -1709.74 -1256.434 L -1780.275 -1307.68 L -1693.09 -1307.68 Z M -1666.148 -970.598 L -1639.206 -887.68 L -1552.021 -887.68 L -1622.556 -836.434 L -1595.614 -753.516 L -1666.148 -804.762 L -1736.682 -753.516 L -1709.74 -836.434 L -1780.275 -887.68 L -1693.09 -887.68 Z M -1666.148 -550.598 L -1639.206 -467.68 L -1552.021 -467.68 L -1622.556 -416.434 L -1595.614 -333.516 L -1666.148 -384.762 L -1736.682 -333.516 L -1709.74 -416.434 L -1780.275 -467.68 L -1693.09 -467.68 Z M -1666.148 -130.598 L -1639.206 -47.68 L -1552.021 -47.68 L -1622.556 3.566 L -1595.614 86.484 L -1666.148 35.238 L -1736.682 86.484 L -1709.74 3.566 L -1780.275 -47.68 L -1693.09 -47.68 Z M -431.148 79.402 L -404.206 162.32 L -317.021 162.32 L -387.556 213.566 L -360.614 296.484 L -431.148 245.238 L -501.682 296.484 L -474.74 213.566 L -545.275 162.32 L -458.09 162.32 Z M -1419.148 -1600.598 L -1392.206 -1517.68 L -1305.021 -1517.68 L -1375.556 -1466.434 L -1348.614 -1383.516 L -1419.148 -1434.762 L -1489.682 -1383.516 L -1462.74 -1466.434 L -1533.275 -1517.68 L -1446.09 -1517.68 Z M -1419.148 -1180.598 L -1392.206 -1097.68 L -1305.021 -1097.68 L -1375.556 -1046.434 L -1348.614 -963.516 L -1419.148 -1014.762 L -1489.682 -963.516 L -1462.74 -1046.434 L -1533.275 -1097.68 L -1446.09 -1097.68 Z M -1419.148 -760.598 L -1392.206 -677.68 L -1305.021 -677.68 L -1375.556 -626.434 L -1348.614 -543.516 L -1419.148 -594.762 L -1489.682 -543.516 L -1462.74 -626.434 L -1533.275 -677.68 L -1446.09 -677.68 Z M -1419.148 -340.598 L -1392.206 -257.68 L -1305.021 -257.68 L -1375.556 -206.434 L -1348.614 -123.516 L -1419.148 -174.762 L -1489.682 -123.516 L -1462.74 -206.434 L -1533.275 -257.68 L -1446.09 -257.68 Z M -1419.148 79.402 L -1392.206 162.32 L -1305.021 162.32 L -1375.556 213.566 L -1348.614 296.484 L -1419.148 245.238 L -1489.682 296.484 L -1462.74 213.566 L -1533.275 162.32 L -1446.09 162.32 Z M -1172.148 -1390.598 L -1145.206 -1307.68 L -1058.021 -1307.68 L -1128.556 -1256.434 L -1101.614 -1173.516 L -1172.148 -1224.762 L -1242.682 -1173.516 L -1215.74 -1256.434 L -1286.275 -1307.68 L -1199.09 -1307.68 Z M -1172.148 -970.598 L -1145.206 -887.68 L -1058.021 -887.68 L -1128.556 -836.434 L -1101.614 -753.516 L -1172.148 -804.762 L -1242.682 -753.516 L -1215.74 -836.434 L -1286.275 -887.68 L -1199.09 -887.68 Z M -1172.148 -550.598 L -1145.206 -467.68 L -1058.021 -467.68 L -1128.556 -416.434 L -1101.614 -333.516 L -1172.148 -384.762 L -1242.682 -333.516 L -1215.74 -416.434 L -1286.275 -467.68 L -1199.09 -467.68 Z M -1172.148 -130.598 L -1145.206 -47.68 L -1058.021 -47.68 L -1128.556 3.566 L -1101.614 86.484 L -1172.148 35.238 L -1242.682 86.484 L -1215.74 3.566 L -1286.275 -47.68 L -1199.09 -47.68 Z M -925.148 -1600.598 L -898.206 -1517.68 L -811.021 -1517.68 L -881.556 -1466.434 L -854.614 -1383.516 L -925.148 -1434.762 L -995.682 -1383.516 L -968.74 -1466.434 L -1039.275 -1517.68 L -952.09 -1517.68 Z M -925.148 -1180.598 L -898.206 -1097.68 L -811.021 -1097.68 L -881.556 -1046.434 L -854.614 -963.516 L -925.148 -1014.762 L -995.682 -963.516 L -968.74 -1046.434 L -1039.275 -1097.68 L -952.09 -1097.68 Z M -925.148 -760.598 L -898.206 -677.68 L -811.021 -677.68 L -881.556 -626.434 L -854.614 -543.516 L -925.148 -594.762 L -995.682 -543.516 L -968.74 -626.434 L -1039.275 -677.68 L -952.09 -677.68 Z M -925.148 -340.598 L -898.206 -257.68 L -811.021 -257.68 L -881.556 -206.434 L -854.614 -123.516 L -925.148 -174.762 L -995.682 -123.516 L -968.74 -206.434 L -1039.275 -257.68 L -952.09 -257.68 Z M -925.148 79.402 L -898.206 162.32 L -811.021 162.32 L -881.556 213.566 L -854.614 296.484 L -925.148 245.238 L -995.682 296.484 L -968.74 213.566 L -1039.275 162.32 L -952.09 162.32 Z M -678.148 -1390.598 L -651.206 -1307.68 L -564.021 -1307.68 L -634.556 -1256.434 L -607.614 -1173.516 L -678.148 -1224.762 L -748.682 -1173.516 L -721.74 -1256.434 L -792.275 -1307.68 L -705.09 -1307.68 Z M -678.148 -970.598 L -651.206 -887.68 L -564.021 -887.68 L -634.556 -836.434 L -607.614 -753.516 L -678.148 -804.762 L -748.682 -753.516 L -721.74 -836.434 L -792.275 -887.68 L -705.09 -887.68 Z M -678.148 -550.598 L -651.206 -467.68 L -564.021 -467.68 L -634.556 -416.434 L -607.614 -333.516 L -678.148 -384.762 L -748.682 -333.516 L -721.74 -416.434 L -792.275 -467.68 L -705.09 -467.68 Z M -678.148 -130.598 L -651.206 -47.68 L -564.021 -47.68 L -634.556 3.566 L -607.614 86.484 L -678.148 35.238 L -748.682 86.484 L -721.74 3.566 L -792.275 -47.68 L -705.09 -47.68 Z M -431.148 -1600.598 L -404.206 -1517.68 L -317.021 -1517.68 L -387.556 -1466.434 L -360.614 -1383.516 L -431.148 -1434.762 L -501.682 -1383.516 L -474.74 -1466.434 L -545.275 -1517.68 L -458.09 -1517.68 Z M -431.148 -1180.598 L -404.206 -1097.68 L -317.021 -1097.68 L -387.556 -1046.434 L -360.614 -963.516 L -431.148 -1014.762 L -501.682 -963.516 L -474.74 -1046.434 L -545.275 -1097.68 L -458.09 -1097.68 Z M -431.148 -760.598 L -404.206 -677.68 L -317.021 -677.68 L -387.556 -626.434 L -360.614 -543.516 L -431.148 -594.762 L -501.682 -543.516 L -474.74 -626.434 L -545.275 -677.68 L -458.09 -677.68 Z M -431.148 -340.598 L -404.206 -257.68 L -317.021 -257.68 L -387.556 -206.434 L -360.614 -123.516 L -431.148 -174.762 L -501.682 -123.516 L -474.74 -206.434 L -545.275 -257.68 L -458.09 -257.68 Z M 62.852 79.402 L 89.794 162.32 L 176.979 162.32 L 106.444 213.566 L 133.386 296.484 L 62.852 245.238 L -7.682 296.484 L 19.26 213.566 L -51.275 162.32 L 35.91 162.32 Z M 62.852 -340.598 L 89.794 -257.68 L 176.979 -257.68 L 106.444 -206.434 L 133.386 -123.516 L 62.852 -174.762 L -7.682 -123.516 L 19.26 -206.434 L -51.275 -257.68 L 35.91 -257.68 Z M 62.852 -1600.598 L 89.794 -1517.68 L 176.979 -1517.68 L 106.444 -1466.434 L 133.386 -1383.516 L 62.852 -1434.762 L -7.682 -1383.516 L 19.26 -1466.434 L -51.275 -1517.68 L 35.91 -1517.68 Z M 62.852 -1180.598 L 89.794 -1097.68 L 176.979 -1097.68 L 106.444 -1046.434 L 133.386 -963.516 L 62.852 -1014.762 L -7.682 -963.516 L 19.26 -1046.434 L -51.275 -1097.68 L 35.91 -1097.68 Z M 62.852 -760.598 L 89.794 -677.68 L 176.979 -677.68 L 106.444 -626.434 L 133.386 -543.516 L 62.852 -594.762 L -7.682 -543.516 L 19.26 -626.434 L -51.275 -677.68 L 35.91 -677.68 Z M -184.148 -1390.598 L -157.206 -1307.68 L -70.021 -1307.68 L -140.556 -1256.434 L -113.614 -1173.516 L -184.148 -1224.762 L -254.682 -1173.516 L -227.74 -1256.434 L -298.275 -1307.68 L -211.09 -1307.68 Z M -184.148 -970.598 L -157.206 -887.68 L -70.021 -887.68 L -140.556 -836.434 L -113.614 -753.516 L -184.148 -804.762 L -254.682 -753.516 L -227.74 -836.434 L -298.275 -887.68 L -211.09 -887.68 Z M -184.148 -550.598 L -157.206 -467.68 L -70.021 -467.68 L -140.556 -416.434 L -113.614 -333.516 L -184.148 -384.762 L -254.682 -333.516 L -227.74 -416.434 L -298.275 -467.68 L -211.09 -467.68 Z M -184.148 -130.598 L -157.206 -47.68 L -70.021 -47.68 L -140.556 3.566 L -113.614 86.484 L -184.148 35.238 L -254.682 86.484 L -227.74 3.566 L -298.275 -47.68 L -211.09 -47.68 Z" style="fill: rgb(255, 255, 255);">
      <title>White Stars</title>
    </path>
  </g>
  <g style="visibility: hidden;" transform="matrix(0.154487, 0, 0, 0.154487, 407.530487, 261.124847)">
    <title>US Flag</title>
    <path d="M 4755.852 -1390.598 L 4755.852 -1090.598 L 309.852 -1090.598 L 309.852 -1390.598 Z M 4755.852 -490.598 L 309.852 -490.598 L 309.852 -790.598 L 4755.852 -790.598 Z M 4755.852 109.402 L 309.852 109.402 L 309.852 -190.598 L 4755.852 -190.598 Z M 4755.852 709.402 L -2654.148 709.402 L -2654.148 409.402 L 4755.852 409.402 Z M 4755.852 1309.402 L -2654.148 1309.402 L -2654.148 1009.402 L 4755.852 1009.402 Z M -2654.148 1609.402 L 4755.852 1609.402 L 4755.852 1909.402 L -2654.148 1909.402 Z" style="fill: rgb(255, 255, 255);">
      <title>White Stripes</title>
    </path>
    <path d="M 4755.852 -1690.598 L 4755.852 -1390.598 L 309.852 -1390.598 L 309.852 -1690.598 Z M 4755.852 2209.402 L -2654.148 2209.402 L -2654.148 1909.402 L 4755.852 1909.402 Z M 4755.852 -1090.598 L 4755.852 -790.598 L 309.852 -790.598 L 309.852 -1090.598 Z M 4755.852 -490.598 L 4755.852 -190.598 L 309.852 -190.598 L 309.852 -490.598 Z M 4755.852 109.402 L 4755.852 409.402 L 309.852 409.402 L 309.852 109.402 Z M 4755.852 709.402 L 4755.852 1009.402 L -2654.148 1009.402 L -2654.148 709.402 Z M 4755.852 1309.402 L 4755.852 1609.402 L -2654.148 1609.402 L -2654.148 1309.402 Z" style="fill: rgb(255, 0, 0);">
      <title>Red Stripes</title>
    </path>
    <path d="M -2654.148 -1690.598 L 309.852 -1690.598 L 309.852 409.402 L -2654.148 409.402" fill="#0a3161" style="">
      <title>Blue Square</title>
    </path>
    <path d="M -1913.148 -1600.598 L -1886.206 -1517.68 L -1799.021 -1517.68 L -1869.556 -1466.434 L -1842.614 -1383.516 L -1913.148 -1434.762 L -1983.682 -1383.516 L -1956.74 -1466.434 L -2027.275 -1517.68 L -1940.09 -1517.68 L -1913.148 -1600.598 Z M -2407.148 -1600.598 L -2380.206 -1517.68 L -2293.021 -1517.68 L -2363.556 -1466.434 L -2336.614 -1383.516 L -2407.148 -1434.762 L -2477.682 -1383.516 L -2450.74 -1466.434 L -2521.275 -1517.68 L -2434.09 -1517.68 L -2407.148 -1600.598 Z M -2407.148 -1180.598 L -2380.206 -1097.68 L -2293.021 -1097.68 L -2363.556 -1046.434 L -2336.614 -963.516 L -2407.148 -1014.762 L -2477.682 -963.516 L -2450.74 -1046.434 L -2521.275 -1097.68 L -2434.09 -1097.68 L -2407.148 -1180.598 Z M -2407.148 -760.598 L -2380.206 -677.68 L -2293.021 -677.68 L -2363.556 -626.434 L -2336.614 -543.516 L -2407.148 -594.762 L -2477.682 -543.516 L -2450.74 -626.434 L -2521.275 -677.68 L -2434.09 -677.68 L -2407.148 -760.598 Z M -2407.148 -340.598 L -2380.206 -257.68 L -2293.021 -257.68 L -2363.556 -206.434 L -2336.614 -123.516 L -2407.148 -174.762 L -2477.682 -123.516 L -2450.74 -206.434 L -2521.275 -257.68 L -2434.09 -257.68 L -2407.148 -340.598 Z M -2407.148 79.402 L -2380.206 162.32 L -2293.021 162.32 L -2363.556 213.566 L -2336.614 296.484 L -2407.148 245.238 L -2477.682 296.484 L -2450.74 213.566 L -2521.275 162.32 L -2434.09 162.32 L -2407.148 79.402 Z M -2160.148 -1390.598 L -2133.206 -1307.68 L -2046.021 -1307.68 L -2116.556 -1256.434 L -2089.614 -1173.516 L -2160.148 -1224.762 L -2230.682 -1173.516 L -2203.74 -1256.434 L -2274.275 -1307.68 L -2187.09 -1307.68 L -2160.148 -1390.598 Z M -2160.148 -970.598 L -2133.206 -887.68 L -2046.021 -887.68 L -2116.556 -836.434 L -2089.614 -753.516 L -2160.148 -804.762 L -2230.682 -753.516 L -2203.74 -836.434 L -2274.275 -887.68 L -2187.09 -887.68 L -2160.148 -970.598 Z M -2160.148 -550.598 L -2133.206 -467.68 L -2046.021 -467.68 L -2116.556 -416.434 L -2089.614 -333.516 L -2160.148 -384.762 L -2230.682 -333.516 L -2203.74 -416.434 L -2274.275 -467.68 L -2187.09 -467.68 L -2160.148 -550.598 Z M -2160.148 -130.598 L -2133.206 -47.68 L -2046.021 -47.68 L -2116.556 3.566 L -2089.614 86.484 L -2160.148 35.238 L -2230.682 86.484 L -2203.74 3.566 L -2274.275 -47.68 L -2187.09 -47.68 L -2160.148 -130.598 Z M -1913.148 -1180.598 L -1886.206 -1097.68 L -1799.021 -1097.68 L -1869.556 -1046.434 L -1842.614 -963.516 L -1913.148 -1014.762 L -1983.682 -963.516 L -1956.74 -1046.434 L -2027.275 -1097.68 L -1940.09 -1097.68 L -1913.148 -1180.598 Z M -1913.148 -760.598 L -1886.206 -677.68 L -1799.021 -677.68 L -1869.556 -626.434 L -1842.614 -543.516 L -1913.148 -594.762 L -1983.682 -543.516 L -1956.74 -626.434 L -2027.275 -677.68 L -1940.09 -677.68 L -1913.148 -760.598 Z M -1913.148 -340.598 L -1886.206 -257.68 L -1799.021 -257.68 L -1869.556 -206.434 L -1842.614 -123.516 L -1913.148 -174.762 L -1983.682 -123.516 L -1956.74 -206.434 L -2027.275 -257.68 L -1940.09 -257.68 L -1913.148 -340.598 Z M -1913.148 79.402 L -1886.206 162.32 L -1799.021 162.32 L -1869.556 213.566 L -1842.614 296.484 L -1913.148 245.238 L -1983.682 296.484 L -1956.74 213.566 L -2027.275 162.32 L -1940.09 162.32 L -1913.148 79.402 Z M -1666.148 -1390.598 L -1639.206 -1307.68 L -1552.021 -1307.68 L -1622.556 -1256.434 L -1595.614 -1173.516 L -1666.148 -1224.762 L -1736.682 -1173.516 L -1709.74 -1256.434 L -1780.275 -1307.68 L -1693.09 -1307.68 L -1666.148 -1390.598 Z M -1666.148 -970.598 L -1639.206 -887.68 L -1552.021 -887.68 L -1622.556 -836.434 L -1595.614 -753.516 L -1666.148 -804.762 L -1736.682 -753.516 L -1709.74 -836.434 L -1780.275 -887.68 L -1693.09 -887.68 L -1666.148 -970.598 Z M -1666.148 -550.598 L -1639.206 -467.68 L -1552.021 -467.68 L -1622.556 -416.434 L -1595.614 -333.516 L -1666.148 -384.762 L -1736.682 -333.516 L -1709.74 -416.434 L -1780.275 -467.68 L -1693.09 -467.68 L -1666.148 -550.598 Z M -1666.148 -130.598 L -1639.206 -47.68 L -1552.021 -47.68 L -1622.556 3.566 L -1595.614 86.484 L -1666.148 35.238 L -1736.682 86.484 L -1709.74 3.566 L -1780.275 -47.68 L -1693.09 -47.68 L -1666.148 -130.598 Z M -431.148 79.402 L -404.206 162.32 L -317.021 162.32 L -387.556 213.566 L -360.614 296.484 L -431.148 245.238 L -501.682 296.484 L -474.74 213.566 L -545.275 162.32 L -458.09 162.32 L -431.148 79.402 Z M -1419.148 -1600.598 L -1392.206 -1517.68 L -1305.021 -1517.68 L -1375.556 -1466.434 L -1348.614 -1383.516 L -1419.148 -1434.762 L -1489.682 -1383.516 L -1462.74 -1466.434 L -1533.275 -1517.68 L -1446.09 -1517.68 L -1419.148 -1600.598 Z M -1419.148 -1180.598 L -1392.206 -1097.68 L -1305.021 -1097.68 L -1375.556 -1046.434 L -1348.614 -963.516 L -1419.148 -1014.762 L -1489.682 -963.516 L -1462.74 -1046.434 L -1533.275 -1097.68 L -1446.09 -1097.68 L -1419.148 -1180.598 Z M -1419.148 -760.598 L -1392.206 -677.68 L -1305.021 -677.68 L -1375.556 -626.434 L -1348.614 -543.516 L -1419.148 -594.762 L -1489.682 -543.516 L -1462.74 -626.434 L -1533.275 -677.68 L -1446.09 -677.68 L -1419.148 -760.598 Z M -1419.148 -340.598 L -1392.206 -257.68 L -1305.021 -257.68 L -1375.556 -206.434 L -1348.614 -123.516 L -1419.148 -174.762 L -1489.682 -123.516 L -1462.74 -206.434 L -1533.275 -257.68 L -1446.09 -257.68 L -1419.148 -340.598 Z M -1419.148 79.402 L -1392.206 162.32 L -1305.021 162.32 L -1375.556 213.566 L -1348.614 296.484 L -1419.148 245.238 L -1489.682 296.484 L -1462.74 213.566 L -1533.275 162.32 L -1446.09 162.32 L -1419.148 79.402 Z M -1172.148 -1390.598 L -1145.206 -1307.68 L -1058.021 -1307.68 L -1128.556 -1256.434 L -1101.614 -1173.516 L -1172.148 -1224.762 L -1242.682 -1173.516 L -1215.74 -1256.434 L -1286.275 -1307.68 L -1199.09 -1307.68 L -1172.148 -1390.598 Z M -1172.148 -970.598 L -1145.206 -887.68 L -1058.021 -887.68 L -1128.556 -836.434 L -1101.614 -753.516 L -1172.148 -804.762 L -1242.682 -753.516 L -1215.74 -836.434 L -1286.275 -887.68 L -1199.09 -887.68 L -1172.148 -970.598 Z M -1172.148 -550.598 L -1145.206 -467.68 L -1058.021 -467.68 L -1128.556 -416.434 L -1101.614 -333.516 L -1172.148 -384.762 L -1242.682 -333.516 L -1215.74 -416.434 L -1286.275 -467.68 L -1199.09 -467.68 L -1172.148 -550.598 Z M -1172.148 -130.598 L -1145.206 -47.68 L -1058.021 -47.68 L -1128.556 3.566 L -1101.614 86.484 L -1172.148 35.238 L -1242.682 86.484 L -1215.74 3.566 L -1286.275 -47.68 L -1199.09 -47.68 L -1172.148 -130.598 Z M -925.148 -1600.598 L -898.206 -1517.68 L -811.021 -1517.68 L -881.556 -1466.434 L -854.614 -1383.516 L -925.148 -1434.762 L -995.682 -1383.516 L -968.74 -1466.434 L -1039.275 -1517.68 L -952.09 -1517.68 L -925.148 -1600.598 Z M -925.148 -1180.598 L -898.206 -1097.68 L -811.021 -1097.68 L -881.556 -1046.434 L -854.614 -963.516 L -925.148 -1014.762 L -995.682 -963.516 L -968.74 -1046.434 L -1039.275 -1097.68 L -952.09 -1097.68 L -925.148 -1180.598 Z M -925.148 -760.598 L -898.206 -677.68 L -811.021 -677.68 L -881.556 -626.434 L -854.614 -543.516 L -925.148 -594.762 L -995.682 -543.516 L -968.74 -626.434 L -1039.275 -677.68 L -952.09 -677.68 L -925.148 -760.598 Z M -925.148 -340.598 L -898.206 -257.68 L -811.021 -257.68 L -881.556 -206.434 L -854.614 -123.516 L -925.148 -174.762 L -995.682 -123.516 L -968.74 -206.434 L -1039.275 -257.68 L -952.09 -257.68 L -925.148 -340.598 Z M -925.148 79.402 L -898.206 162.32 L -811.021 162.32 L -881.556 213.566 L -854.614 296.484 L -925.148 245.238 L -995.682 296.484 L -968.74 213.566 L -1039.275 162.32 L -952.09 162.32 L -925.148 79.402 Z M -678.148 -1390.598 L -651.206 -1307.68 L -564.021 -1307.68 L -634.556 -1256.434 L -607.614 -1173.516 L -678.148 -1224.762 L -748.682 -1173.516 L -721.74 -1256.434 L -792.275 -1307.68 L -705.09 -1307.68 L -678.148 -1390.598 Z M -678.148 -970.598 L -651.206 -887.68 L -564.021 -887.68 L -634.556 -836.434 L -607.614 -753.516 L -678.148 -804.762 L -748.682 -753.516 L -721.74 -836.434 L -792.275 -887.68 L -705.09 -887.68 L -678.148 -970.598 Z M -678.148 -550.598 L -651.206 -467.68 L -564.021 -467.68 L -634.556 -416.434 L -607.614 -333.516 L -678.148 -384.762 L -748.682 -333.516 L -721.74 -416.434 L -792.275 -467.68 L -705.09 -467.68 L -678.148 -550.598 Z M -678.148 -130.598 L -651.206 -47.68 L -564.021 -47.68 L -634.556 3.566 L -607.614 86.484 L -678.148 35.238 L -748.682 86.484 L -721.74 3.566 L -792.275 -47.68 L -705.09 -47.68 L -678.148 -130.598 Z M -431.148 -1600.598 L -404.206 -1517.68 L -317.021 -1517.68 L -387.556 -1466.434 L -360.614 -1383.516 L -431.148 -1434.762 L -501.682 -1383.516 L -474.74 -1466.434 L -545.275 -1517.68 L -458.09 -1517.68 L -431.148 -1600.598 Z M -431.148 -1180.598 L -404.206 -1097.68 L -317.021 -1097.68 L -387.556 -1046.434 L -360.614 -963.516 L -431.148 -1014.762 L -501.682 -963.516 L -474.74 -1046.434 L -545.275 -1097.68 L -458.09 -1097.68 L -431.148 -1180.598 Z M -431.148 -760.598 L -404.206 -677.68 L -317.021 -677.68 L -387.556 -626.434 L -360.614 -543.516 L -431.148 -594.762 L -501.682 -543.516 L -474.74 -626.434 L -545.275 -677.68 L -458.09 -677.68 L -431.148 -760.598 Z M -431.148 -340.598 L -404.206 -257.68 L -317.021 -257.68 L -387.556 -206.434 L -360.614 -123.516 L -431.148 -174.762 L -501.682 -123.516 L -474.74 -206.434 L -545.275 -257.68 L -458.09 -257.68 L -431.148 -340.598 Z M 62.852 79.402 L 89.794 162.32 L 176.979 162.32 L 106.444 213.566 L 133.386 296.484 L 62.852 245.238 L -7.682 296.484 L 19.26 213.566 L -51.275 162.32 L 35.91 162.32 L 62.852 79.402 Z M 62.852 -340.598 L 89.794 -257.68 L 176.979 -257.68 L 106.444 -206.434 L 133.386 -123.516 L 62.852 -174.762 L -7.682 -123.516 L 19.26 -206.434 L -51.275 -257.68 L 35.91 -257.68 L 62.852 -340.598 Z M 62.852 -1600.598 L 89.794 -1517.68 L 176.979 -1517.68 L 106.444 -1466.434 L 133.386 -1383.516 L 62.852 -1434.762 L -7.682 -1383.516 L 19.26 -1466.434 L -51.275 -1517.68 L 35.91 -1517.68 L 62.852 -1600.598 Z M 62.852 -1180.598 L 89.794 -1097.68 L 176.979 -1097.68 L 106.444 -1046.434 L 133.386 -963.516 L 62.852 -1014.762 L -7.682 -963.516 L 19.26 -1046.434 L -51.275 -1097.68 L 35.91 -1097.68 L 62.852 -1180.598 Z M 62.852 -760.598 L 89.794 -677.68 L 176.979 -677.68 L 106.444 -626.434 L 133.386 -543.516 L 62.852 -594.762 L -7.682 -543.516 L 19.26 -626.434 L -51.275 -677.68 L 35.91 -677.68 L 62.852 -760.598 Z M -184.148 -1390.598 L -157.206 -1307.68 L -70.021 -1307.68 L -140.556 -1256.434 L -113.614 -1173.516 L -184.148 -1224.762 L -254.682 -1173.516 L -227.74 -1256.434 L -298.275 -1307.68 L -211.09 -1307.68 L -184.148 -1390.598 Z M -184.148 -970.598 L -157.206 -887.68 L -70.021 -887.68 L -140.556 -836.434 L -113.614 -753.516 L -184.148 -804.762 L -254.682 -753.516 L -227.74 -836.434 L -298.275 -887.68 L -211.09 -887.68 L -184.148 -970.598 Z M -184.148 -550.598 L -157.206 -467.68 L -70.021 -467.68 L -140.556 -416.434 L -113.614 -333.516 L -184.148 -384.762 L -254.682 -333.516 L -227.74 -416.434 L -298.275 -467.68 L -211.09 -467.68 L -184.148 -550.598 Z M -184.148 -130.598 L -157.206 -47.68 L -70.021 -47.68 L -140.556 3.566 L -113.614 86.484 L -184.148 35.238 L -254.682 86.484 L -227.74 3.566 L -298.275 -47.68 L -211.09 -47.68 L -184.148 -130.598 Z" style="fill: rgb(255, 255, 255);"/>
  </g>
  <g style="" transform="matrix(20.046452, 0, 0, 20.046452, -16327.533203, -6050.795898)">
    <title>UK Flagge</title>
    <path d="M 859.381 301.839 L 859.381 331.769 L 835.664 331.769 C 834.837 331.15 840.45 310.586 840.579 310.008 C 840.605 309.89 840.629 309.773 840.65 309.658 C 841.025 307.608 840.614 305.855 839.891 304.448 C 839.731 304.138 839.557 303.843 839.372 303.565 C 838.927 302.896 839.271 301.839 839.271 301.839 L 859.381 301.839 Z" fill="#012169">
      <title>Blue Background</title>
    </path>
    <path d="M 840.241 316.826 L 859.381 328.311 L 859.381 331.769 L 853.485 331.769 L 834.41 320.325 L 833.151 321.08 C 833.778 319.999 834.665 318.847 835.875 317.619 C 837.951 315.506 839.255 313.567 839.994 311.816 C 840.258 311.189 840.45 310.586 840.579 310.008 C 840.612 309.862 840.64 309.717 840.665 309.574 L 853.558 301.839 L 859.381 301.839 L 859.381 305.341 Z" style="fill: rgb(255, 255, 255);">
      <title>Weißer Hintergrund</title>
    </path>
    <path d="M 842.747 321.826 L 846.631 321.826 L 859.381 329.476 L 859.381 331.769 L 859.315 331.769 L 842.747 321.826 Z M 859.381 301.839 L 859.381 301.843 L 838.636 314.29 C 839.215 313.428 839.662 312.603 839.994 311.816 C 840.118 311.521 840.226 311.232 840.319 310.948 L 855.501 301.839 L 859.381 301.839 Z" style="fill: rgb(255, 0, 0);">
      <title>Rotes X</title>
    </path>
    <path d="M 839.41 321.826 L 839.41 331.769 L 835.664 331.769 C 834.837 331.15 833.961 330.352 833.259 329.375 C 832.308 328.053 831.688 326.436 831.935 324.477 C 832.041 323.639 832.304 322.745 832.77 321.792 C 833.399 320.509 834.396 319.12 835.875 317.619 C 837.947 315.51 839.25 313.574 839.99 311.826 L 859.381 311.826 L 859.381 321.826 L 839.41 321.826 Z M 837.41 319.826 L 858.381 319.826 L 858.381 313.826 L 840.102 313.826 C 839.287 315.225 838.32 316.551 836.588 318.32 C 835.159 319.761 834.254 321.021 833.668 322.232 C 833.232 323.107 833.017 323.843 832.927 324.602 C 832.651 326.32 833.181 327.582 834.071 328.791 C 834.703 329.69 835.304 330.225 836.002 330.769 L 837.41 330.769 L 837.41 319.826 Z M 837.93 301.839 L 839.41 301.839 L 839.41 303.623 C 839.41 303.623 838.438 302.334 837.93 301.839 Z" style="fill: rgb(255, 255, 255);"/>
    <path d="M 837.508 319.968 L 837.508 331.769 L 835.664 331.769 C 834.837 331.15 833.961 330.352 833.259 329.375 C 832.308 328.053 831.688 326.436 831.935 324.477 C 832.041 323.639 832.304 322.745 832.77 321.792 C 833.399 320.509 834.396 319.12 835.875 317.619 C 837.245 316.225 838.279 314.905 839.036 313.666 L 859.381 313.666 L 859.381 319.968 L 837.508 319.968 Z" stroke-width="2" style="fill: rgb(255, 0, 0);">
      <title>Rotes +</title>
    </path>
  </g>
</svg>